{
    "asset" : {
        "generator" : "Khronos glTF Blender I/O v1.7.33",
        "version" : "2.0"
    },
    "scene" : 0,
    "scenes" : [
        {
            "name" : "Scene",
            "nodes" : [
                0,
                1,
                2,
                3,
                4
            ]
        }
    ],
    "nodes" : [
        {
            "mesh" : 0,
            "name" : "pCone1.012"
        },
        {
            "mesh" : 1,
            "name" : "pCube52.012"
        },
        {
            "mesh" : 2,
            "name" : "pCube53.012"
        },
        {
            "mesh" : 3,
            "name" : "pCube56.012"
        },
        {
            "mesh" : 4,
            "name" : "pCylinder9.012"
        }
    ],
    "materials" : [
        {
            "alphaMode" : "BLEND",
            "doubleSided" : true,
            "emissiveFactor" : [
                1,
                1,
                1
            ],
            "emissiveTexture" : {
                "index" : 0
            },
            "name" : "hologram.001",
            "pbrMetallicRoughness" : {
                "baseColorTexture" : {
                    "index" : 1
                },
                "metallicFactor" : 0,
                "roughnessFactor" : 0.5527864098548889
            }
        },
        {
            "doubleSided" : true,
            "name" : "PodiumDetail_V04",
            "pbrMetallicRoughness" : {
                "baseColorFactor" : [
                    0.009480010718107224,
                    0.032243192195892334,
                    0.08331678807735443,
                    1
                ],
                "metallicFactor" : 0.4681818187236786,
                "roughnessFactor" : 0.9136363863945007
            }
        },
        {
            "doubleSided" : true,
            "emissiveFactor" : [
                0,
                1,
                1
            ],
            "name" : "PoduimLight_00",
            "pbrMetallicRoughness" : {
                "baseColorFactor" : [
                    0,
                    1,
                    1,
                    1
                ],
                "metallicFactor" : 0,
                "roughnessFactor" : 0.5527864098548889
            }
        },
        {
            "doubleSided" : true,
            "name" : "PodiumBody_V04",
            "pbrMetallicRoughness" : {
                "baseColorFactor" : [
                    0.07047170400619507,
                    0.21757666766643524,
                    0.3813260495662689,
                    1
                ],
                "metallicFactor" : 0.7590909004211426,
                "roughnessFactor" : 0.5136363506317139
            }
        },
        {
            "doubleSided" : true,
            "name" : "PodiumDetail_V03",
            "pbrMetallicRoughness" : {}
        }
    ],
    "meshes" : [
        {
            "name" : "Mesh.048",
            "primitives" : [
                {
                    "attributes" : {
                        "POSITION" : 0,
                        "NORMAL" : 1,
                        "TEXCOORD_0" : 2
                    },
                    "indices" : 3,
                    "material" : 0
                }
            ]
        },
        {
            "name" : "Mesh.057",
            "primitives" : [
                {
                    "attributes" : {
                        "POSITION" : 4,
                        "NORMAL" : 5,
                        "TEXCOORD_0" : 6
                    },
                    "indices" : 7,
                    "material" : 1
                }
            ]
        },
        {
            "name" : "Mesh.058",
            "primitives" : [
                {
                    "attributes" : {
                        "POSITION" : 8,
                        "NORMAL" : 9,
                        "TEXCOORD_0" : 10
                    },
                    "indices" : 11,
                    "material" : 1
                }
            ]
        },
        {
            "name" : "Mesh.059",
            "primitives" : [
                {
                    "attributes" : {
                        "POSITION" : 12,
                        "NORMAL" : 13,
                        "TEXCOORD_0" : 14
                    },
                    "indices" : 15,
                    "material" : 1
                }
            ]
        },
        {
            "name" : "Mesh.060",
            "primitives" : [
                {
                    "attributes" : {
                        "POSITION" : 16,
                        "NORMAL" : 17,
                        "TEXCOORD_0" : 18,
                        "TEXCOORD_1" : 19
                    },
                    "indices" : 20,
                    "material" : 2
                },
                {
                    "attributes" : {
                        "POSITION" : 21,
                        "NORMAL" : 22,
                        "TEXCOORD_0" : 23,
                        "TEXCOORD_1" : 24
                    },
                    "indices" : 25,
                    "material" : 3
                },
                {
                    "attributes" : {
                        "POSITION" : 26,
                        "NORMAL" : 27,
                        "TEXCOORD_0" : 28,
                        "TEXCOORD_1" : 29
                    },
                    "indices" : 30,
                    "material" : 4
                }
            ]
        }
    ],
    "textures" : [
        {
            "sampler" : 0,
            "source" : 0
        },
        {
            "sampler" : 0,
            "source" : 1
        }
    ],
    "images" : [
        {
            "bufferView" : 4,
            "mimeType" : "image/png",
            "name" : "hologram projection tex"
        },
        {
            "bufferView" : 5,
            "mimeType" : "image/png",
            "name" : "hologram projection tex"
        }
    ],
    "accessors" : [
        {
            "bufferView" : 0,
            "componentType" : 5126,
            "count" : 22,
            "max" : [
                1.691701889038086,
                2.953425407409668,
                1.7947471141815186
            ],
            "min" : [
                -1.6754858493804932,
                0.4860261082649231,
                -1.5724413394927979
            ],
            "type" : "VEC3"
        },
        {
            "bufferView" : 1,
            "componentType" : 5126,
            "count" : 22,
            "type" : "VEC3"
        },
        {
            "bufferView" : 2,
            "componentType" : 5126,
            "count" : 22,
            "type" : "VEC2"
        },
        {
            "bufferView" : 3,
            "componentType" : 5123,
            "count" : 60,
            "type" : "SCALAR"
        },
        {
            "bufferView" : 6,
            "componentType" : 5126,
            "count" : 183,
            "max" : [
                0.8555283546447754,
                1.3888942003250122,
                -1.823828101158142
            ],
            "min" : [
                -0.8514235019683838,
                -0.06834843009710312,
                -2.7088239192962646
            ],
            "type" : "VEC3"
        },
        {
            "bufferView" : 7,
            "componentType" : 5126,
            "count" : 183,
            "type" : "VEC3"
        },
        {
            "bufferView" : 8,
            "componentType" : 5126,
            "count" : 183,
            "type" : "VEC2"
        },
        {
            "bufferView" : 9,
            "componentType" : 5123,
            "count" : 474,
            "type" : "SCALAR"
        },
        {
            "bufferView" : 10,
            "componentType" : 5126,
            "count" : 183,
            "max" : [
                0.8555283546447754,
                1.3888933658599854,
                2.880009651184082
            ],
            "min" : [
                -0.8514235019683838,
                -0.06834913790225983,
                1.9950140714645386
            ],
            "type" : "VEC3"
        },
        {
            "bufferView" : 11,
            "componentType" : 5126,
            "count" : 183,
            "type" : "VEC3"
        },
        {
            "bufferView" : 12,
            "componentType" : 5126,
            "count" : 183,
            "type" : "VEC2"
        },
        {
            "bufferView" : 13,
            "componentType" : 5123,
            "count" : 474,
            "type" : "SCALAR"
        },
        {
            "bufferView" : 14,
            "componentType" : 5126,
            "count" : 366,
            "max" : [
                2.871929407119751,
                1.388893723487854,
                0.8636066913604736
            ],
            "min" : [
                -2.716904401779175,
                -0.06834866851568222,
                -0.8433451652526855
            ],
            "type" : "VEC3"
        },
        {
            "bufferView" : 15,
            "componentType" : 5126,
            "count" : 366,
            "type" : "VEC3"
        },
        {
            "bufferView" : 16,
            "componentType" : 5126,
            "count" : 366,
            "type" : "VEC2"
        },
        {
            "bufferView" : 17,
            "componentType" : 5123,
            "count" : 948,
            "type" : "SCALAR"
        },
        {
            "bufferView" : 18,
            "componentType" : 5126,
            "count" : 277,
            "max" : [
                1.5085320472717285,
                1.2663825750350952,
                1.61339271068573
            ],
            "min" : [
                -1.4976511001586914,
                0.989774227142334,
                -1.3927913904190063
            ],
            "type" : "VEC3"
        },
        {
            "bufferView" : 19,
            "componentType" : 5126,
            "count" : 277,
            "type" : "VEC3"
        },
        {
            "bufferView" : 20,
            "componentType" : 5126,
            "count" : 277,
            "type" : "VEC2"
        },
        {
            "bufferView" : 21,
            "componentType" : 5126,
            "count" : 277,
            "type" : "VEC2"
        },
        {
            "bufferView" : 22,
            "componentType" : 5123,
            "count" : 594,
            "type" : "SCALAR"
        },
        {
            "bufferView" : 23,
            "componentType" : 5126,
            "count" : 461,
            "max" : [
                2.5199437141418457,
                1.307529330253601,
                2.6248044967651367
            ],
            "min" : [
                -2.5090630054473877,
                0.024225279688835144,
                -2.4042036533355713
            ],
            "type" : "VEC3"
        },
        {
            "bufferView" : 24,
            "componentType" : 5126,
            "count" : 461,
            "type" : "VEC3"
        },
        {
            "bufferView" : 25,
            "componentType" : 5126,
            "count" : 461,
            "type" : "VEC2"
        },
        {
            "bufferView" : 26,
            "componentType" : 5126,
            "count" : 461,
            "type" : "VEC2"
        },
        {
            "bufferView" : 27,
            "componentType" : 5123,
            "count" : 1566,
            "type" : "SCALAR"
        },
        {
            "bufferView" : 28,
            "componentType" : 5126,
            "count" : 80,
            "max" : [
                1.4316151142120361,
                1.1301192045211792,
                1.5364757776260376
            ],
            "min" : [
                -1.420734167098999,
                1.1017742156982422,
                -1.3158745765686035
            ],
            "type" : "VEC3"
        },
        {
            "bufferView" : 29,
            "componentType" : 5126,
            "count" : 80,
            "type" : "VEC3"
        },
        {
            "bufferView" : 30,
            "componentType" : 5126,
            "count" : 80,
            "type" : "VEC2"
        },
        {
            "bufferView" : 31,
            "componentType" : 5126,
            "count" : 80,
            "type" : "VEC2"
        },
        {
            "bufferView" : 32,
            "componentType" : 5123,
            "count" : 240,
            "type" : "SCALAR"
        }
    ],
    "bufferViews" : [
        {
            "buffer" : 0,
            "byteLength" : 264,
            "byteOffset" : 0
        },
        {
            "buffer" : 0,
            "byteLength" : 264,
            "byteOffset" : 264
        },
        {
            "buffer" : 0,
            "byteLength" : 176,
            "byteOffset" : 528
        },
        {
            "buffer" : 0,
            "byteLength" : 120,
            "byteOffset" : 704
        },
        {
            "buffer" : 0,
            "byteLength" : 71452,
            "byteOffset" : 824
        },
        {
            "buffer" : 0,
            "byteLength" : 112639,
            "byteOffset" : 72276
        },
        {
            "buffer" : 0,
            "byteLength" : 2196,
            "byteOffset" : 184916
        },
        {
            "buffer" : 0,
            "byteLength" : 2196,
            "byteOffset" : 187112
        },
        {
            "buffer" : 0,
            "byteLength" : 1464,
            "byteOffset" : 189308
        },
        {
            "buffer" : 0,
            "byteLength" : 948,
            "byteOffset" : 190772
        },
        {
            "buffer" : 0,
            "byteLength" : 2196,
            "byteOffset" : 191720
        },
        {
            "buffer" : 0,
            "byteLength" : 2196,
            "byteOffset" : 193916
        },
        {
            "buffer" : 0,
            "byteLength" : 1464,
            "byteOffset" : 196112
        },
        {
            "buffer" : 0,
            "byteLength" : 948,
            "byteOffset" : 197576
        },
        {
            "buffer" : 0,
            "byteLength" : 4392,
            "byteOffset" : 198524
        },
        {
            "buffer" : 0,
            "byteLength" : 4392,
            "byteOffset" : 202916
        },
        {
            "buffer" : 0,
            "byteLength" : 2928,
            "byteOffset" : 207308
        },
        {
            "buffer" : 0,
            "byteLength" : 1896,
            "byteOffset" : 210236
        },
        {
            "buffer" : 0,
            "byteLength" : 3324,
            "byteOffset" : 212132
        },
        {
            "buffer" : 0,
            "byteLength" : 3324,
            "byteOffset" : 215456
        },
        {
            "buffer" : 0,
            "byteLength" : 2216,
            "byteOffset" : 218780
        },
        {
            "buffer" : 0,
            "byteLength" : 2216,
            "byteOffset" : 220996
        },
        {
            "buffer" : 0,
            "byteLength" : 1188,
            "byteOffset" : 223212
        },
        {
            "buffer" : 0,
            "byteLength" : 5532,
            "byteOffset" : 224400
        },
        {
            "buffer" : 0,
            "byteLength" : 5532,
            "byteOffset" : 229932
        },
        {
            "buffer" : 0,
            "byteLength" : 3688,
            "byteOffset" : 235464
        },
        {
            "buffer" : 0,
            "byteLength" : 3688,
            "byteOffset" : 239152
        },
        {
            "buffer" : 0,
            "byteLength" : 3132,
            "byteOffset" : 242840
        },
        {
            "buffer" : 0,
            "byteLength" : 960,
            "byteOffset" : 245972
        },
        {
            "buffer" : 0,
            "byteLength" : 960,
            "byteOffset" : 246932
        },
        {
            "buffer" : 0,
            "byteLength" : 640,
            "byteOffset" : 247892
        },
        {
            "buffer" : 0,
            "byteLength" : 640,
            "byteOffset" : 248532
        },
        {
            "buffer" : 0,
            "byteLength" : 480,
            "byteOffset" : 249172
        }
    ],
    "samplers" : [
        {
            "magFilter" : 9729,
            "minFilter" : 9987
        }
    ],
    "buffers" : [
        {
            "byteLength" : 249652,
            "uri" : "data:application/octet-stream;base64,"
        }
    ]
}
