<svg width="231" height="145" viewBox="0 0 231 145" fill="none" xmlns="http://www.w3.org/2000/svg">
<g filter="url(#filter0_d_2533_128043)">
<path d="M51.281 41.5563C51.5803 41.5042 51.8261 42.0295 52.0183 43.1325C52.076 43.4634 52.1052 43.8641 52.106 44.3348C52.1199 44.7869 52.0323 45.0295 51.8432 45.0624L48.8416 45.5855L49.2535 47.9489L53.6022 47.1911C53.8701 47.1445 54.1117 47.4595 54.327 48.1363C54.4264 48.4275 54.5063 48.7464 54.5667 49.093C54.6244 49.4239 54.6526 49.8654 54.6514 50.4176C54.6503 50.9698 54.5394 51.2651 54.3188 51.3035L46.2358 52.712C45.6371 52.8163 45.2952 52.6242 45.21 52.1358L42.562 36.9389C42.4906 36.5292 42.6361 36.2928 42.9985 36.2297L51.4596 34.7553C51.7905 34.6977 52.0781 35.37 52.3225 36.7723C52.5641 38.1589 52.5194 38.881 52.1886 38.9386L47.8162 39.7005L48.2321 42.0876L51.281 41.5563ZM63.1083 33.3831C63.215 32.8774 64.1586 32.4695 65.939 32.1593C66.396 32.0796 66.9622 32.0216 67.6377 31.985C68.3262 31.93 68.6759 31.934 68.6869 31.997L66.094 40.8746L71.6168 47.9728C71.6778 48.0433 71.3527 48.1812 70.6417 48.3862C69.9279 48.5755 69.3189 48.7141 68.8147 48.802C66.8136 49.1507 65.6719 49.0736 65.3895 48.5709L62.8303 44.3656L62.0344 49.3016C61.9538 49.7702 60.9838 50.1665 59.1246 50.4905C58.6676 50.5701 58.0949 50.6374 57.4064 50.6925C56.7179 50.7475 56.3956 50.7144 56.4394 50.5931L58.7014 41.7731L53.5136 34.6409C53.4526 34.5704 53.7633 34.4432 54.4456 34.2594C55.1409 34.0571 55.7327 33.9133 56.2212 33.8282C58.2065 33.4823 59.3431 33.5765 59.631 34.1107L61.9536 37.7972L63.1083 33.3831ZM75.4274 47.6741C73.9935 47.9239 73.2492 47.8913 73.1943 47.5762L70.5256 32.2611C70.4323 31.7254 70.6298 31.4149 71.1183 31.3298L75.2779 30.605C77.6099 30.1987 79.3716 30.3869 80.5633 31.1695C81.7707 31.9495 82.5336 33.2533 82.8521 35.081C83.1156 36.5936 82.8688 38.0653 82.1116 39.496C81.7329 40.2114 81.1039 40.8405 80.2244 41.3834C79.3449 41.9262 78.2749 42.3075 77.0144 42.5271L77.7516 46.7577C77.7845 46.9468 77.5085 47.1329 76.9235 47.316C76.3515 47.4806 75.8528 47.6 75.4274 47.6741ZM75.6636 34.7751L76.3143 38.5093L76.6216 38.4558C77.173 38.3597 77.6076 38.1054 77.9254 37.6928C78.2431 37.2803 78.3471 36.7589 78.2373 36.1287C78.1275 35.4984 77.9153 35.0727 77.6008 34.8515C77.302 34.6276 76.8217 34.5733 76.1599 34.6886L75.6636 34.7751ZM86.4808 44.2626L83.9192 29.562C83.8615 29.2311 84.6284 28.927 86.2198 28.6497C87.8269 28.3697 88.6593 28.3951 88.717 28.726L90.7349 40.3068L94.3746 39.6726C94.6582 39.6232 94.9197 39.9591 95.159 40.6805C95.2695 41.0346 95.3576 41.4008 95.4235 41.7789C95.4894 42.1571 95.533 42.5472 95.5544 42.9494C95.5601 43.7276 95.4212 44.1415 95.1376 44.1909L87.8582 45.4593C87.5116 45.5197 87.2111 45.426 86.9569 45.178C86.7026 44.9301 86.5439 44.625 86.4808 44.2626ZM104.41 42.8188C102.204 43.2031 100.273 42.7927 98.6185 41.5875C96.9794 40.3795 95.9182 38.389 95.435 35.6159C94.949 32.827 95.2823 30.5935 96.4347 28.9153C97.603 27.2344 99.2979 26.2004 101.52 25.8133C103.757 25.4234 105.685 25.8181 107.302 26.9973C108.918 28.1607 109.975 30.1763 110.475 33.0439C110.972 35.8958 110.641 38.1451 109.483 39.7917C108.322 41.4226 106.631 42.4317 104.41 42.8188ZM102.263 30.3593C101.507 30.4911 100.929 30.9489 100.53 31.7328C100.146 32.514 100.065 33.5348 100.284 34.7953C100.501 36.04 100.913 36.9586 101.519 37.551C102.123 38.1277 102.819 38.3473 103.607 38.2101C104.41 38.07 104.997 37.6187 105.368 36.8561C105.754 36.0907 105.837 35.0778 105.617 33.8173C105.398 32.5568 104.969 31.6331 104.331 31.0461C103.709 30.4565 103.019 30.2275 102.263 30.3593ZM118.38 39.8C118.424 40.0521 117.698 40.3085 116.201 40.5694C114.688 40.8329 113.911 40.8466 113.87 40.6102L111.185 25.2006C111.089 24.6491 111.332 24.3226 111.915 24.221L116.429 23.4344C120.573 22.7123 122.927 23.9663 123.49 27.1964C123.66 28.1733 123.626 29.0964 123.388 29.9659C123.147 30.8196 122.721 31.5432 122.11 32.1367L125.953 36.581C125.893 36.9811 125.558 37.4858 124.95 38.095C124.123 38.9373 123.402 39.412 122.788 39.519C122.173 39.6261 121.678 39.4851 121.301 39.0961L118.178 34.3073L117.445 34.435L118.38 39.8ZM116.284 27.7701L116.902 31.3152L117.02 31.2946C118.517 31.0338 119.157 30.281 118.94 29.0363C118.841 28.4691 118.618 28.0776 118.272 27.8619C117.939 27.6277 117.442 27.5683 116.78 27.6836L116.284 27.7701ZM133.926 27.1556C134.225 27.1034 134.471 27.6288 134.663 28.7317C134.721 29.0626 134.75 29.4634 134.751 29.9341C134.765 30.3862 134.677 30.6288 134.488 30.6617L131.486 31.1847L131.898 33.5482L136.247 32.7904C136.515 32.7437 136.756 33.0588 136.972 33.7356C137.071 34.0267 137.151 34.3456 137.211 34.6923C137.269 35.0231 137.297 35.4647 137.296 36.0169C137.295 36.569 137.184 36.8644 136.963 36.9028L128.88 38.3112C128.282 38.4156 127.94 38.2235 127.855 37.7351L125.207 22.5382C125.135 22.1285 125.281 21.8921 125.643 21.8289L134.104 20.3546C134.435 20.2969 134.723 20.9693 134.967 22.3716C135.209 23.7581 135.164 24.4802 134.833 24.5379L130.461 25.2998L130.877 27.6868L133.926 27.1556ZM155.445 33.7311C154.074 33.9699 153.296 33.8784 153.108 33.4564L151.797 30.5435L148.039 31.1983L147.865 34.2484C147.855 34.7533 147.141 35.1293 145.723 35.3764C144.967 35.5082 144.401 35.5663 144.025 35.5506C143.646 35.5192 143.452 35.4799 143.444 35.4326L144.839 18.7032C144.817 18.5772 145.886 18.3261 148.044 17.9499C150.203 17.5738 151.293 17.4488 151.315 17.5748L158.196 32.8865C158.215 32.9968 157.868 33.1466 157.154 33.3359C156.44 33.5252 155.871 33.6569 155.445 33.7311ZM148.107 28.0938L150.589 27.6613L148.673 22.9543L148.531 22.9791L148.107 28.0938ZM159.455 31.5469L156.893 16.8464C156.836 16.5155 157.602 16.2114 159.194 15.9341C160.801 15.654 161.633 15.6795 161.691 16.0103L163.709 27.5912L167.349 26.957C167.632 26.9076 167.894 27.2435 168.133 27.9648C168.243 28.319 168.332 28.6852 168.397 29.0633C168.463 29.4415 168.507 29.8316 168.528 30.2338C168.534 31.012 168.395 31.4259 168.112 31.4753L160.832 32.7437C160.486 32.8041 160.185 32.7103 159.931 32.4624C159.677 32.2145 159.518 31.9093 159.455 31.5469ZM169.844 29.7367L167.282 15.0361C167.224 14.7052 167.991 14.4011 169.583 14.1238C171.19 13.8438 172.022 13.8692 172.08 14.2001L174.098 25.7809L177.738 25.1467C178.021 25.0973 178.283 25.4333 178.522 26.1546C178.632 26.5087 178.721 26.8749 178.786 27.253C178.852 27.6312 178.896 28.0213 178.917 28.4235C178.923 29.2017 178.784 29.6156 178.501 29.665L171.221 30.9334C170.874 30.9938 170.574 30.9001 170.32 30.6522C170.066 30.4042 169.907 30.0991 169.844 29.7367ZM69.4798 76.1173C68.046 76.3671 67.3017 76.3345 67.2467 76.0193L64.5781 60.7043C64.4848 60.1685 64.6823 59.8581 65.1708 59.773L69.3304 59.0482C71.6623 58.6419 73.4241 58.83 74.6157 59.6127C75.8231 60.3926 76.5861 61.6965 76.9045 63.5242C77.1681 65.0368 76.9213 66.5085 76.164 67.9392C75.7854 68.6545 75.1564 69.2837 74.2769 69.8265C73.3974 70.3694 72.3274 70.7507 71.0669 70.9703L71.8041 75.2009C71.837 75.39 71.561 75.576 70.976 75.7592C70.404 75.9238 69.9053 76.0431 69.4798 76.1173ZM69.7161 63.2182L70.3668 66.9525L70.674 66.8989C71.2255 66.8028 71.6601 66.5485 71.9779 66.136C72.2956 65.7235 72.3996 65.2021 72.2898 64.5718C72.1799 63.9416 71.9678 63.5159 71.6532 63.2947C71.3545 63.0708 70.8742 63.0164 70.2124 63.1318L69.7161 63.2182ZM85.4691 72.9415C85.513 73.1936 84.7866 73.4501 83.2897 73.7109C81.7771 73.9745 81.0002 73.9881 80.959 73.7517L78.2739 58.3421C78.1778 57.7907 78.4213 57.4641 79.0043 57.3625L83.5184 56.576C87.6623 55.8539 90.0157 57.1079 90.5785 60.3379C90.7487 61.3148 90.7148 62.238 90.4767 63.1074C90.2358 63.9611 89.8099 64.6847 89.199 65.2782L93.0417 69.7225C92.9816 70.1227 92.6474 70.6273 92.0393 71.2366C91.2119 72.0788 90.491 72.5535 89.8765 72.6606C89.262 72.7676 88.7667 72.6267 88.3904 72.2377L85.2669 67.4489L84.5342 67.5765L85.4691 72.9415ZM83.3729 60.9116L83.9906 64.4568L84.1088 64.4362C85.6056 64.1754 86.2456 63.4226 86.0287 62.1778C85.9299 61.6106 85.7074 61.2191 85.3614 61.0035C85.0284 60.7693 84.531 60.7098 83.8692 60.8251L83.3729 60.9116ZM102.132 70.6225C99.9261 71.0069 97.9957 70.5964 96.3408 69.3912C94.7016 68.1832 93.6405 66.1927 93.1573 63.4196C92.6713 60.6307 93.0046 58.3972 94.157 56.7191C95.3253 55.0381 97.0202 54.0041 99.2418 53.617C101.479 53.2271 103.407 53.6218 105.025 54.801C106.64 55.9645 107.697 57.98 108.197 60.8477C108.694 63.6995 108.363 65.9488 107.205 67.5955C106.045 69.2264 104.354 70.2354 102.132 70.6225ZM99.9853 58.163C99.2289 58.2948 98.6512 58.7527 98.2521 59.5365C97.8687 60.3177 97.7868 61.3385 98.0064 62.599C98.2233 63.8437 98.635 64.7623 99.2415 65.3547C99.8453 65.9314 100.541 66.1511 101.329 66.0138C102.132 65.8738 102.719 65.4224 103.09 64.6598C103.476 63.8944 103.559 62.8815 103.34 61.621C103.12 60.3605 102.691 59.4368 102.053 58.8499C101.431 58.2602 100.742 58.0313 99.9853 58.163ZM110.306 66.7629C110.227 66.306 110.269 65.7548 110.432 65.1094C110.593 64.4482 110.812 63.9799 111.088 63.7044C111.764 64.0413 112.409 64.1561 113.023 64.0491L113.736 63.8032C114.542 63.4029 114.866 62.6485 114.705 61.5401L113.655 55.5133L111.764 55.8427C111.496 55.8894 111.248 55.5836 111.02 54.9253C110.915 54.6027 110.832 54.268 110.772 53.9214C110.711 53.5747 110.676 53.2319 110.665 52.8927C110.658 52.196 110.788 51.8243 111.056 51.7776L116.681 50.7975C116.996 50.7426 117.249 50.7959 117.439 50.9575C117.627 51.1034 117.743 51.3024 117.787 51.5545L119.73 62.7099C119.999 64.254 119.684 65.5185 118.784 66.5033C117.9 67.4853 116.733 68.1026 115.284 68.3552C113.85 68.605 112.694 68.5872 111.816 68.3018C110.939 68.0164 110.435 67.5035 110.306 66.7629ZM128.624 55.4862C128.924 55.434 129.17 55.9594 129.362 57.0623C129.419 57.3932 129.449 57.794 129.449 58.2646C129.463 58.7168 129.376 58.9593 129.187 58.9923L126.185 59.5153L126.597 61.8787L130.946 61.121C131.213 61.0743 131.455 61.3894 131.67 62.0662C131.77 62.3573 131.85 62.6762 131.91 63.0228C131.968 63.3537 131.996 63.7952 131.995 64.3474C131.994 64.8996 131.883 65.1949 131.662 65.2334L123.579 66.6418C122.98 66.7461 122.639 66.5541 122.553 66.0656L119.905 50.8687C119.834 50.4591 119.98 50.2227 120.342 50.1595L128.803 48.6852C129.134 48.6275 129.422 49.2998 129.666 50.7021C129.907 52.0887 129.863 52.8108 129.532 52.8685L125.16 53.6303L125.576 56.0174L128.624 55.4862ZM138.295 46.8121C139.445 46.6117 140.482 46.6014 141.406 46.7813C142.343 46.9427 142.86 47.2991 142.956 47.8506C143.052 48.402 142.959 49.1245 142.676 50.018C142.407 50.8929 142.13 51.3551 141.847 51.4045C141.768 51.4182 141.666 51.3953 141.542 51.3358C141.431 51.2577 141.178 51.2043 140.784 51.1757C140.402 51.1286 140.077 51.1283 139.81 51.175C138.896 51.3342 138.212 51.7863 137.757 52.5311C137.318 53.2732 137.215 54.3139 137.449 55.6532C137.679 56.9767 138.134 57.9121 138.814 58.4592C139.51 59.0037 140.299 59.199 141.181 59.0452C141.543 58.9821 141.937 58.8648 142.362 58.6934C142.799 58.5035 143.096 58.2975 143.252 58.0755C143.278 58.0385 143.339 58.0118 143.433 57.9953C143.528 57.9788 143.733 58.1298 144.048 58.4483C144.376 58.7482 144.701 59.1705 145.024 59.715C145.343 60.2438 145.53 60.6658 145.585 60.9809C145.692 61.5954 145.305 62.1662 144.422 62.6933C143.54 63.2205 142.453 63.5966 141.161 63.8217C139.081 64.1841 137.244 63.7494 135.649 62.5174C134.055 61.2854 133.025 59.338 132.561 56.6752C132.095 53.9967 132.414 51.7738 133.518 50.0066C134.638 48.2366 136.23 47.1718 138.295 46.8121ZM154.869 60.7999C154.924 61.115 154.172 61.4085 152.612 61.6803C151.052 61.9521 150.245 61.9305 150.19 61.6153L148.122 49.7509L145.286 50.2451C145.018 50.2917 144.766 49.9623 144.53 49.2567C144.422 48.9183 144.336 48.5679 144.273 48.2055C144.21 47.8431 144.172 47.4845 144.159 47.1296C144.143 46.3856 144.269 45.9903 144.537 45.9436L154.818 44.1521C155.086 44.1055 155.338 44.4349 155.574 45.1405C155.682 45.4789 155.767 45.8293 155.831 46.1917C155.894 46.5541 155.932 46.9127 155.945 47.2676C155.961 48.0116 155.835 48.4069 155.567 48.4536L152.802 48.9354L154.869 60.7999ZM159.412 54.456C159.753 54.6402 160.321 54.874 161.118 55.1574C161.929 55.438 162.666 55.5206 163.328 55.4053C164.006 55.2873 164.299 54.9683 164.208 54.4483C164.167 54.212 164.037 54.0236 163.818 53.8832C163.596 53.7271 163.212 53.5748 162.667 53.4263C162.121 53.2778 161.712 53.1625 161.437 53.0804C161.161 52.9825 160.783 52.8209 160.306 52.5957C159.841 52.352 159.47 52.0839 159.192 51.7914C158.405 51.0031 157.891 49.9157 157.649 48.5292C157.408 47.1426 157.716 45.8874 158.576 44.7636C159.448 43.6213 160.72 42.9046 162.39 42.6136C163.524 42.4159 164.594 42.3594 165.599 42.444C166.601 42.5128 167.153 42.7415 167.253 43.1299C167.261 43.1772 167.269 43.2244 167.277 43.2717C167.374 43.8232 167.322 44.5545 167.124 45.4658C166.923 46.3613 166.76 46.8686 166.634 46.9879C165.535 46.6436 164.584 46.5415 163.78 46.6815C162.993 46.8188 162.648 47.1711 162.747 47.7383C162.807 48.0849 163.152 48.3414 163.782 48.5076C163.919 48.5487 164.115 48.6038 164.371 48.6729C164.627 48.742 164.918 48.8293 165.245 48.9347C165.584 49.0216 165.948 49.153 166.336 49.3289C166.737 49.4864 167.175 49.7185 167.651 50.0252C168.623 50.6675 169.222 51.6347 169.447 52.9267C169.741 54.6126 169.516 56.0723 168.773 57.3057C168.03 58.5391 166.692 59.3404 164.76 59.7096C163.815 59.8744 162.942 59.9452 162.143 59.9222C161.359 59.8964 160.644 59.7045 159.997 59.3464C159.35 58.9883 158.97 58.4862 158.858 57.8402C158.745 57.1942 158.752 56.5355 158.879 55.8641C159.002 55.1769 159.18 54.7075 159.412 54.456Z" fill="#3CEC82"/>
</g>
<g filter="url(#filter1_d_2533_128043)">
<path d="M123.779 82.7432C123.7 82.1965 123.193 81.8171 122.647 81.8957C122.1 81.9743 121.721 82.4811 121.799 83.0278L123.779 82.7432ZM70.4351 131.613C69.9446 131.866 69.7526 132.47 70.0063 132.96L74.141 140.954C74.3948 141.445 74.9981 141.637 75.4887 141.383C75.9792 141.129 76.1712 140.526 75.9175 140.035L72.2422 132.93L79.348 129.254C79.8385 129.001 80.0305 128.397 79.7768 127.907C79.5231 127.416 78.9197 127.224 78.4292 127.478L70.4351 131.613ZM121.799 83.0278C122.94 90.9606 123.857 107.537 117.706 119.877C114.653 126.003 109.877 131.05 102.519 133.524C95.1331 136.008 85.0116 135.943 71.1978 131.548L70.5913 133.454C84.6435 137.925 95.2284 138.086 103.156 135.42C111.111 132.745 116.255 127.271 119.496 120.769C125.933 107.855 124.931 90.7567 123.779 82.7432L121.799 83.0278Z" fill="white"/>
</g>
<defs>
<filter id="filter0_d_2533_128043" x="38.3056" y="10.7326" width="149.673" height="75.1635" filterUnits="userSpaceOnUse" color-interpolation-filters="sRGB">
<feFlood flood-opacity="0" result="BackgroundImageFix"/>
<feColorMatrix in="SourceAlpha" type="matrix" values="0 0 0 0 0 0 0 0 0 0 0 0 0 0 0 0 0 0 127 0" result="hardAlpha"/>
<feOffset dy="2.05621"/>
<feGaussianBlur stdDeviation="2.05621"/>
<feComposite in2="hardAlpha" operator="out"/>
<feColorMatrix type="matrix" values="0 0 0 0 0 0 0 0 0 0 0 0 0 0 0 0 0 0 1 0"/>
<feBlend mode="normal" in2="BackgroundImageFix" result="effect1_dropShadow_2533_128043"/>
<feBlend mode="normal" in="SourceGraphic" in2="effect1_dropShadow_2533_128043" result="shape"/>
</filter>
<filter id="filter1_d_2533_128043" x="67.8945" y="80.8855" width="58.7329" height="63.6096" filterUnits="userSpaceOnUse" color-interpolation-filters="sRGB">
<feFlood flood-opacity="0" result="BackgroundImageFix"/>
<feColorMatrix in="SourceAlpha" type="matrix" values="0 0 0 0 0 0 0 0 0 0 0 0 0 0 0 0 0 0 127 0" result="hardAlpha"/>
<feOffset dy="1"/>
<feGaussianBlur stdDeviation="1"/>
<feComposite in2="hardAlpha" operator="out"/>
<feColorMatrix type="matrix" values="0 0 0 0 0 0 0 0 0 0 0 0 0 0 0 0 0 0 1 0"/>
<feBlend mode="normal" in2="BackgroundImageFix" result="effect1_dropShadow_2533_128043"/>
<feBlend mode="normal" in="SourceGraphic" in2="effect1_dropShadow_2533_128043" result="shape"/>
</filter>
</defs>
</svg>
