<svg width="219" height="81" viewBox="0 0 219 81" fill="none" xmlns="http://www.w3.org/2000/svg">
<g filter="url(#filter0_d_2275_119355)">
<path d="M46.3265 17.4012C46.5632 17.4467 46.5978 17.9056 46.4302 18.7778C46.38 19.0395 46.2889 19.345 46.1572 19.6944C46.0403 20.0337 45.9071 20.189 45.7576 20.1603L43.3839 19.7042L43.0247 21.5733L46.4639 22.2341C46.6757 22.2748 46.7663 22.5765 46.7358 23.1391C46.7276 23.383 46.6973 23.6421 46.6446 23.9162C46.5943 24.1779 46.4911 24.5134 46.3349 24.9227C46.1788 25.3319 46.0135 25.5198 45.839 25.4863L39.4467 24.2581C38.9732 24.1672 38.7735 23.9285 38.8478 23.5423L41.1569 11.5239C41.2191 11.2 41.3936 11.0655 41.6802 11.1206L48.3715 12.4062C48.6332 12.4565 48.6575 13.0361 48.4444 14.1451C48.2337 15.2417 47.9976 15.7648 47.7359 15.7145L44.2781 15.0502L43.9153 16.9379L46.3265 17.4012ZM57.3988 14.664C57.6202 14.3189 58.4349 14.2816 59.8429 14.5521C60.2043 14.6216 60.6407 14.7377 61.152 14.9006C61.6783 15.0534 61.9366 15.1547 61.927 15.2045L57.507 21.0611L59.6079 27.8799C59.6334 27.9493 59.3535 27.9602 58.7683 27.9123C58.1856 27.8521 57.6948 27.7836 57.2961 27.707C55.7136 27.4029 54.8882 27.0247 54.8201 26.5723L54.1042 22.733L52.1258 26.1709C51.9341 26.4959 51.1031 26.5171 49.6328 26.2346C49.2714 26.1652 48.8276 26.0541 48.3014 25.9013C47.7751 25.7485 47.5453 25.6333 47.6119 25.5556L51.7703 19.6488L49.9274 12.899C49.902 12.8295 50.1682 12.8225 50.7261 12.878C51.2988 12.9234 51.7783 12.9832 52.1645 13.0575C53.7346 13.3591 54.5513 13.7486 54.6146 14.2259L55.301 17.6138L57.3988 14.664ZM62.5188 28.7298C61.3849 28.512 60.8418 28.2784 60.8897 28.0292L63.2168 15.9175C63.2982 15.4938 63.5321 15.3191 63.9183 15.3933L67.208 16.0253C69.0521 16.3797 70.3062 17.0147 70.9701 17.9304C71.6464 18.8485 71.8458 20.0303 71.568 21.4757C71.3382 22.672 70.7412 23.6943 69.7771 24.5427C69.2951 24.9669 68.6515 25.2567 67.8464 25.4121C67.0413 25.5675 66.1404 25.5495 65.1435 25.3579L64.5007 28.7036C64.472 28.8532 64.2148 28.9136 63.7294 28.8849C63.2588 28.8462 62.8552 28.7945 62.5188 28.7298ZM66.3214 19.2273L65.754 22.1805L65.997 22.2272C66.4331 22.311 66.827 22.2445 67.1788 22.0278C67.5305 21.8112 67.7542 21.4536 67.85 20.9552C67.9458 20.4568 67.9081 20.0813 67.7369 19.8288C67.5783 19.5786 67.2373 19.4033 66.7139 19.3027L66.3214 19.2273ZM71.678 29.3074L73.9117 17.6816C73.962 17.4199 74.6164 17.41 75.8749 17.6518C77.1459 17.896 77.7562 18.1489 77.706 18.4106L75.9463 27.5692L78.8247 28.1222C79.049 28.1653 79.1485 28.4881 79.1232 29.0905C79.1055 29.3843 79.0679 29.6807 79.0105 29.9797C78.953 30.2788 78.8757 30.5805 78.7784 30.8848C78.5638 31.4638 78.3444 31.7317 78.1201 31.6886L72.3633 30.5825C72.0891 30.5299 71.8926 30.3758 71.7737 30.1204C71.6548 29.865 71.6229 29.594 71.678 29.3074ZM85.3843 33.2782C83.6398 32.943 82.3232 32.0957 81.4345 30.7362C80.5582 29.3791 80.3307 27.6041 80.7521 25.411C81.1759 23.2055 82.0512 21.6423 83.378 20.7214C84.7174 19.803 86.2655 19.5125 88.0225 19.8501C89.7919 20.1901 91.1109 21.0249 91.9795 22.3547C92.8505 23.672 93.0681 25.4645 92.6324 27.7324C92.1991 29.9877 91.3214 31.5634 89.9993 32.4593C88.6796 33.3428 87.1413 33.6157 85.3843 33.2782ZM87.2956 23.4316C86.6975 23.3167 86.1401 23.4938 85.6236 23.9631C85.1195 24.4348 84.7717 25.169 84.5802 26.1659C84.391 27.1503 84.4381 27.9475 84.7215 28.5575C85.0072 29.1551 85.4616 29.5137 86.0846 29.6334C86.7201 29.7555 87.2825 29.5858 87.7717 29.1242C88.2734 28.665 88.62 27.937 88.8115 26.9401C89.003 25.9432 88.9447 25.1374 88.6364 24.5226C88.3406 23.9102 87.8937 23.5465 87.2956 23.4316ZM96.597 34.9674C96.5587 35.1667 95.9477 35.1527 94.7639 34.9253C93.5677 34.6954 92.9876 34.487 93.0235 34.3001L95.3649 22.1136C95.4487 21.6775 95.7211 21.5037 96.1822 21.5923L99.7522 22.2782C103.029 22.9079 104.422 24.4999 103.932 27.0544C103.783 27.8269 103.498 28.5022 103.077 29.0802C102.659 29.6458 102.139 30.0628 101.519 30.3313L103.12 34.7089C102.963 34.9888 102.573 35.2692 101.951 35.5502C101.1 35.9423 100.432 36.0917 99.9457 35.9984C99.4597 35.905 99.1319 35.6611 98.9622 35.2667L97.9917 30.8358L97.4122 30.7245L96.597 34.9674ZM98.425 25.4536L97.8863 28.2573L97.9797 28.2753C99.1635 28.5027 99.85 28.1242 100.039 27.1398C100.125 26.6912 100.07 26.3383 99.8743 26.081C99.6931 25.8136 99.3408 25.6296 98.8175 25.5291L98.425 25.4536ZM111.685 29.9588C111.922 30.0043 111.956 30.4632 111.789 31.3354C111.739 31.5971 111.648 31.9027 111.516 32.252C111.399 32.5914 111.266 32.7467 111.116 32.7179L108.742 32.2619L108.383 34.131L111.822 34.7917C112.034 34.8324 112.125 35.1341 112.094 35.6967C112.086 35.9407 112.056 36.1997 112.003 36.4738C111.953 36.7355 111.85 37.071 111.694 37.4803C111.537 37.8896 111.372 38.0775 111.198 38.044L104.805 36.8158C104.332 36.7248 104.132 36.4862 104.206 36.0999L106.515 24.0816C106.578 23.7576 106.752 23.6232 107.039 23.6782L113.73 24.9639C113.992 25.0141 114.016 25.5938 113.803 26.7028C113.592 27.7993 113.356 28.3224 113.094 28.2722L109.637 27.6078L109.274 29.4956L111.685 29.9588ZM125.8 40.8884C124.716 40.6801 124.164 40.3931 124.144 40.0274L123.99 37.4978L121.018 36.9268L120.031 39.1403C119.882 39.5122 119.247 39.5905 118.125 39.375C117.527 39.2601 117.091 39.1439 116.816 39.0266C116.544 38.8967 116.411 38.8131 116.419 38.7758L122.158 26.7576C122.177 26.6579 123.04 26.7721 124.747 27.1001C126.455 27.4281 127.299 27.6419 127.279 27.7416L128.078 41.0353C128.061 41.1226 127.762 41.136 127.179 41.0757C126.596 41.0155 126.136 40.953 125.8 40.8884ZM121.942 34.6428L123.904 35.0199L123.806 30.9893L123.694 30.9677L121.942 34.6428ZM129.389 40.3956L131.622 28.7698C131.673 28.5081 132.327 28.4982 133.586 28.74C134.856 28.9842 135.467 29.2371 135.417 29.4988L133.657 38.6574L136.535 39.2104C136.76 39.2535 136.859 39.5763 136.834 40.1787C136.816 40.4725 136.779 40.7689 136.721 41.068C136.664 41.367 136.586 41.6687 136.489 41.973C136.274 42.552 136.055 42.8199 135.831 42.7768L130.074 41.6707C129.8 41.6181 129.603 41.464 129.484 41.2086C129.365 40.9532 129.334 40.6822 129.389 40.3956ZM137.605 41.9742L139.838 30.3484C139.889 30.0867 140.543 30.0768 141.802 30.3186C143.072 30.5628 143.683 30.8157 143.633 31.0774L141.873 40.236L144.751 40.789C144.976 40.8321 145.075 41.1549 145.05 41.7573C145.032 42.0511 144.995 42.3475 144.937 42.6465C144.88 42.9456 144.802 43.2473 144.705 43.5516C144.49 44.1306 144.271 44.3985 144.047 44.3554L138.29 43.2493C138.016 43.1967 137.819 43.0426 137.7 42.7872C137.581 42.5318 137.55 42.2608 137.605 41.9742ZM49.9988 48.7267C48.8649 48.5088 48.3218 48.2753 48.3697 48.0261L50.6968 35.9143C50.7782 35.4907 51.0121 35.316 51.3983 35.3902L54.688 36.0222C56.5321 36.3765 57.7862 37.0116 58.4501 37.9273C59.1264 38.8454 59.3258 40.0272 59.048 41.4726C58.8182 42.6688 58.2212 43.6912 57.2571 44.5396C56.7751 44.9638 56.1315 45.2536 55.3264 45.409C54.5213 45.5644 53.6204 45.5463 52.6235 45.3548L51.9807 48.7005C51.952 48.85 51.6949 48.9105 51.2094 48.8818C50.7388 48.843 50.3352 48.7914 49.9988 48.7267ZM53.8014 39.2242L53.234 42.1773L53.477 42.224C53.9131 42.3078 54.307 42.2414 54.6588 42.0247C55.0105 41.808 55.2342 41.4505 55.33 40.9521C55.4258 40.4536 55.3881 40.0782 55.217 39.8256C55.0583 39.5755 54.7173 39.4001 54.1939 39.2996L53.8014 39.2242ZM62.7533 50.8672C62.715 51.0666 62.1039 51.0525 60.9202 50.8251C59.7239 50.5953 59.1438 50.3869 59.1797 50.2L61.5211 38.0134C61.6049 37.5773 61.8774 37.4036 62.3384 37.4921L65.9084 38.178C69.1855 38.8077 70.5787 40.3997 70.0879 42.9542C69.9395 43.7267 69.6547 44.402 69.2335 44.9801C68.8148 45.5457 68.2953 45.9627 67.6753 46.2312L69.2762 50.6088C69.119 50.8887 68.7292 51.1691 68.1067 51.45C67.2561 51.8422 66.5879 51.9916 66.1019 51.8982C65.6159 51.8048 65.2881 51.5609 65.1184 51.1666L64.1479 46.7357L63.5685 46.6243L62.7533 50.8672ZM64.5812 41.3535L64.0425 44.1571L64.136 44.1751C65.3197 44.4025 66.0062 44.0241 66.1953 43.0397C66.2815 42.5911 66.2266 42.2381 66.0305 41.9808C65.8493 41.7134 65.497 41.5294 64.9737 41.4289L64.5812 41.3535ZM75.7665 53.8326C74.022 53.4975 72.7054 52.6501 71.8167 51.2907C70.9404 49.9336 70.713 48.1586 71.1343 45.9655C71.5581 43.7599 72.4334 42.1967 73.7603 41.2759C75.0996 40.3575 76.6477 40.067 78.4047 40.4046C80.1741 40.7446 81.4931 41.5794 82.3617 42.9092C83.2327 44.2264 83.4503 46.019 83.0146 48.2868C82.5813 50.5422 81.7036 52.1179 80.3815 53.0138C79.0618 53.8973 77.5235 54.1702 75.7665 53.8326ZM77.6778 43.9861C77.0797 43.8712 76.5223 44.0483 76.0058 44.5176C75.5017 44.9893 75.1539 45.7235 74.9624 46.7204C74.7732 47.7048 74.8203 48.502 75.1037 49.112C75.3894 49.7096 75.8438 50.0682 76.4668 50.1879C77.1023 50.31 77.6647 50.1402 78.1539 49.6787C78.6556 49.2195 79.0022 48.4914 79.1937 47.4946C79.3853 46.4977 79.3269 45.6919 79.0186 45.0771C78.7229 44.4647 78.2759 44.101 77.6778 43.9861ZM82.9159 53.2682C82.9853 52.9068 83.1714 52.5097 83.4742 52.0769C83.7794 51.6317 84.0734 51.3457 84.3561 51.2192C84.7626 51.6591 85.2088 51.9257 85.6948 52.019L86.2922 52.0369C87.0034 51.9668 87.4552 51.4981 87.6477 50.6306L88.5635 45.8644L87.0682 45.5771C86.8564 45.5364 86.7583 45.2398 86.774 44.6872C86.7869 44.4183 86.8197 44.1469 86.8724 43.8727C86.925 43.5986 86.9952 43.3343 87.0829 43.0798C87.273 42.5607 87.474 42.3216 87.6859 42.3623L92.1343 43.217C92.3835 43.2648 92.5561 43.3755 92.652 43.549C92.7502 43.71 92.7802 43.8902 92.7419 44.0896L91.0469 52.9117C90.8122 54.1328 90.2227 54.9822 89.2782 55.4596C88.3461 55.9395 87.3069 56.0693 86.1605 55.8491C85.0266 55.6312 84.1742 55.293 83.6034 54.8345C83.0325 54.3759 82.8034 53.8538 82.9159 53.2682ZM99.6761 50.0539C99.9129 50.0994 99.9475 50.5583 99.7799 51.4305C99.7296 51.6922 99.6386 51.9977 99.5069 52.3471C99.39 52.6864 99.2568 52.8417 99.1073 52.813L96.7335 52.3569L96.3744 54.226L99.8135 54.8868C100.025 54.9275 100.116 55.2292 100.085 55.7918C100.077 56.0357 100.047 56.2948 99.9943 56.5689C99.944 56.8306 99.8408 57.1661 99.6846 57.5754C99.5284 57.9847 99.3631 58.1725 99.1887 58.139L92.7964 56.9108C92.3228 56.8199 92.1232 56.5812 92.1974 56.195L94.5066 44.1767C94.5688 43.8527 94.7432 43.7182 95.0298 43.7733L101.721 45.0589C101.983 45.1092 102.007 45.6888 101.794 46.7978C101.583 47.8944 101.347 48.4175 101.086 48.3672L97.6277 47.7029L97.265 49.5907L99.6761 50.0539ZM109.289 46.3385C110.199 46.5133 110.971 46.7974 111.606 47.1907C112.256 47.574 112.539 47.9837 112.455 48.4198C112.371 48.856 112.099 49.3657 111.638 49.949C111.192 50.5222 110.857 50.7873 110.633 50.7442C110.57 50.7322 110.502 50.6867 110.426 50.6077C110.366 50.5185 110.193 50.4079 109.909 50.2756C109.639 50.1334 109.398 50.0419 109.186 50.0012C108.463 49.8623 107.829 50.0052 107.282 50.4299C106.748 50.857 106.379 51.6001 106.175 52.6593C105.974 53.706 106.049 54.5279 106.399 55.1249C106.762 55.7244 107.292 56.0912 107.99 56.2253C108.277 56.2803 108.602 56.304 108.965 56.2963C109.343 56.2785 109.621 56.2092 109.8 56.0884C109.829 56.0682 109.882 56.0654 109.956 56.0797C110.031 56.0941 110.141 56.2637 110.285 56.5886C110.444 56.9035 110.567 57.3081 110.652 57.8027C110.741 58.2848 110.761 58.6505 110.713 58.8997C110.62 59.3856 110.172 59.7001 109.369 59.8431C108.566 59.986 107.654 59.9593 106.632 59.763C104.987 59.447 103.747 58.6078 102.91 57.2454C102.074 55.8831 101.858 54.149 102.262 52.0432C102.669 49.9248 103.531 48.3655 104.847 47.3651C106.176 46.3671 107.657 46.0249 109.289 46.3385ZM117.651 61.3762C117.603 61.6255 116.963 61.6316 115.729 61.3945C114.496 61.1575 113.903 60.9144 113.951 60.6652L115.753 51.2823L113.51 50.8514C113.299 50.8107 113.204 50.4954 113.227 49.9054C113.242 49.6241 113.277 49.3401 113.333 49.0535C113.388 48.7669 113.46 48.4902 113.55 48.2232C113.748 47.6668 113.952 47.4089 114.164 47.4496L122.295 49.0118C122.506 49.0525 122.601 49.3678 122.578 49.9578C122.563 50.2391 122.527 50.523 122.472 50.8096C122.417 51.0962 122.345 51.373 122.255 51.6399C122.057 52.1964 121.853 52.4542 121.641 52.4135L119.454 51.9934L117.651 61.3762ZM122.806 57.9477C123.006 58.1801 123.362 58.5133 123.873 58.9474C124.397 59.3839 124.92 59.6525 125.443 59.753C125.979 59.856 126.287 59.7018 126.366 59.2906C126.402 59.1037 126.358 58.9274 126.235 58.7616C126.114 58.5833 125.872 58.3624 125.509 58.0989C125.146 57.8354 124.875 57.6346 124.695 57.4966C124.517 57.3462 124.282 57.1203 123.991 56.8189C123.715 56.5074 123.515 56.2041 123.391 55.9089C123.029 55.1029 122.953 54.1516 123.164 53.0551C123.375 51.9585 123.957 51.1142 124.911 50.5222C125.879 49.9201 127.024 49.746 128.345 49.9998C129.242 50.1721 130.051 50.431 130.773 50.7764C131.497 51.1094 131.842 51.434 131.807 51.7503C131.8 51.7877 131.792 51.8251 131.785 51.8625C131.701 52.2986 131.458 52.8268 131.054 53.447C130.653 54.0547 130.39 54.3852 130.263 54.4384C129.545 53.874 128.868 53.5307 128.232 53.4086C127.609 53.2889 127.255 53.4533 127.168 53.9019C127.116 54.1761 127.3 54.4633 127.72 54.7638C127.81 54.8327 127.94 54.9288 128.11 55.0519C128.28 55.1751 128.472 55.3217 128.685 55.4918C128.912 55.6518 129.145 55.8516 129.384 56.0912C129.637 56.3207 129.896 56.6161 130.163 56.9774C130.704 57.7274 130.876 58.6132 130.68 59.635C130.423 60.9683 129.846 61.9879 128.948 62.694C128.05 63.4001 126.833 63.6183 125.295 63.3488C124.548 63.2051 123.88 63.0124 123.294 62.7704C122.72 62.5309 122.243 62.1874 121.864 61.7398C121.485 61.2923 121.344 60.8131 121.442 60.3022C121.54 59.7913 121.731 59.3046 122.014 58.8421C122.299 58.3671 122.563 58.069 122.806 57.9477Z" fill="#3CEC82"/>
</g>
<g filter="url(#filter1_d_2275_119355)">
<path d="M160.57 48.3924C160.036 48.2512 159.718 47.7039 159.859 47.17C160 46.636 160.547 46.3176 161.081 46.4588L160.57 48.3924ZM207.511 7.47578C207.819 7.01779 208.441 6.89671 208.899 7.20535L216.362 12.2349C216.82 12.5435 216.941 13.165 216.633 13.623C216.324 14.081 215.703 14.2021 215.245 13.8935L208.61 9.42274L204.14 16.0569C203.831 16.5149 203.21 16.636 202.752 16.3274C202.294 16.0187 202.172 15.3973 202.481 14.9393L207.511 7.47578ZM161.081 46.4588C167.736 48.2181 181.764 50.6353 192.869 46.6227C198.375 44.6333 203.126 41.078 205.95 35.0802C208.786 29.0563 209.738 20.4402 207.358 8.22585L209.321 7.8434C211.749 20.3033 210.839 29.3907 207.759 35.9321C204.668 42.4996 199.45 46.3715 193.549 48.5036C181.84 52.7342 167.304 50.1725 160.57 48.3924L161.081 46.4588Z" fill="white"/>
</g>
<defs>
<filter id="filter0_d_2275_119355" x="31.2833" y="9.23883" width="119.114" height="61.9246" filterUnits="userSpaceOnUse" color-interpolation-filters="sRGB">
<feFlood flood-opacity="0" result="BackgroundImageFix"/>
<feColorMatrix in="SourceAlpha" type="matrix" values="0 0 0 0 0 0 0 0 0 0 0 0 0 0 0 0 0 0 127 0" result="hardAlpha"/>
<feOffset dy="1.63129"/>
<feGaussianBlur stdDeviation="1.63129"/>
<feComposite in2="hardAlpha" operator="out"/>
<feColorMatrix type="matrix" values="0 0 0 0 0 0 0 0 0 0 0 0 0 0 0 0 0 0 1 0"/>
<feBlend mode="normal" in2="BackgroundImageFix" result="effect1_dropShadow_2275_119355"/>
<feBlend mode="normal" in="SourceGraphic" in2="effect1_dropShadow_2275_119355" result="shape"/>
</filter>
<filter id="filter1_d_2275_119355" x="157.825" y="6.03418" width="60.9781" height="47.7705" filterUnits="userSpaceOnUse" color-interpolation-filters="sRGB">
<feFlood flood-opacity="0" result="BackgroundImageFix"/>
<feColorMatrix in="SourceAlpha" type="matrix" values="0 0 0 0 0 0 0 0 0 0 0 0 0 0 0 0 0 0 127 0" result="hardAlpha"/>
<feOffset dy="1"/>
<feGaussianBlur stdDeviation="1"/>
<feComposite in2="hardAlpha" operator="out"/>
<feColorMatrix type="matrix" values="0 0 0 0 0 0 0 0 0 0 0 0 0 0 0 0 0 0 1 0"/>
<feBlend mode="normal" in2="BackgroundImageFix" result="effect1_dropShadow_2275_119355"/>
<feBlend mode="normal" in="SourceGraphic" in2="effect1_dropShadow_2275_119355" result="shape"/>
</filter>
</defs>
</svg>
