{
    "asset" : {
        "generator" : "Khronos glTF Blender I/O v1.7.33",
        "version" : "2.0"
    },
    "scene" : 0,
    "scenes" : [
        {
            "name" : "Scene",
            "nodes" : [
                0
            ]
        }
    ],
    "nodes" : [
        {
            "mesh" : 0,
            "name" : "pSphere1"
        }
    ],
    "materials" : [
        {
            "doubleSided" : true,
            "name" : "incC",
            "pbrMetallicRoughness" : {
                "baseColorFactor" : [
                    1,
                    0.00604869844391942,
                    0.15896087884902954,
                    1
                ],
                "metallicFactor" : 0,
                "roughnessFactor" : 0.5527864098548889
            }
        },
        {
            "doubleSided" : true,
            "name" : "lambert9",
            "pbrMetallicRoughness" : {
                "baseColorFactor" : [
                    0,
                    1,
                    1,
                    0.14935064315795898
                ],
                "metallicFactor" : 0,
                "roughnessFactor" : 0.5527864098548889
            }
        }
    ],
    "meshes" : [
        {
            "name" : "Mesh.001",
            "primitives" : [
                {
                    "attributes" : {
                        "POSITION" : 0,
                        "NORMAL" : 1,
                        "TEXCOORD_0" : 2
                    },
                    "indices" : 3,
                    "material" : 0
                },
                {
                    "attributes" : {
                        "POSITION" : 4,
                        "NORMAL" : 5,
                        "TEXCOORD_0" : 6
                    },
                    "indices" : 7,
                    "material" : 1
                }
            ]
        }
    ],
    "accessors" : [
        {
            "bufferView" : 0,
            "componentType" : 5126,
            "count" : 712,
            "max" : [
                2.4932076930999756,
                0.11222837120294571,
                2.4932079315185547
            ],
            "min" : [
                -2.493208169937134,
                -2.503004550933838,
                -2.493208885192871
            ],
            "type" : "VEC3"
        },
        {
            "bufferView" : 1,
            "componentType" : 5126,
            "count" : 712,
            "type" : "VEC3"
        },
        {
            "bufferView" : 2,
            "componentType" : 5126,
            "count" : 712,
            "type" : "VEC2"
        },
        {
            "bufferView" : 3,
            "componentType" : 5123,
            "count" : 3000,
            "type" : "SCALAR"
        },
        {
            "bufferView" : 4,
            "componentType" : 5126,
            "count" : 628,
            "max" : [
                2.4932076930999756,
                2.490812063217163,
                2.4932079315185547
            ],
            "min" : [
                -2.493208169937134,
                0.111457958817482,
                -2.493208885192871
            ],
            "type" : "VEC3"
        },
        {
            "bufferView" : 5,
            "componentType" : 5126,
            "count" : 628,
            "type" : "VEC3"
        },
        {
            "bufferView" : 6,
            "componentType" : 5126,
            "count" : 628,
            "type" : "VEC2"
        },
        {
            "bufferView" : 7,
            "componentType" : 5123,
            "count" : 2760,
            "type" : "SCALAR"
        }
    ],
    "bufferViews" : [
        {
            "buffer" : 0,
            "byteLength" : 8544,
            "byteOffset" : 0
        },
        {
            "buffer" : 0,
            "byteLength" : 8544,
            "byteOffset" : 8544
        },
        {
            "buffer" : 0,
            "byteLength" : 5696,
            "byteOffset" : 17088
        },
        {
            "buffer" : 0,
            "byteLength" : 6000,
            "byteOffset" : 22784
        },
        {
            "buffer" : 0,
            "byteLength" : 7536,
            "byteOffset" : 28784
        },
        {
            "buffer" : 0,
            "byteLength" : 7536,
            "byteOffset" : 36320
        },
        {
            "buffer" : 0,
            "byteLength" : 5024,
            "byteOffset" : 43856
        },
        {
            "buffer" : 0,
            "byteLength" : 5520,
            "byteOffset" : 48880
        }
    ],
    "buffers" : [
        {
            "byteLength" : 54400,
            "uri" : "data:application/octet-stream;base64,"
        }
    ]
}
