<svg width="400" height="400" viewBox="0 0 400 400" fill="none" xmlns="http://www.w3.org/2000/svg">
<g clip-path="url(#clip0_1971_111460)">
<path d="M-18.0096 176.81C-21.0296 176.81 -24.0596 176.81 -27.0796 176.81C-27.4096 176.34 -27.7396 175.88 -28.0596 175.43C-28.0596 172.48 -28.0596 169.54 -28.0596 166.65C-27.7896 166.36 -27.5596 166.11 -27.2496 165.78C-26.0796 165.78 -24.8496 165.78 -23.6296 165.78C-23.5296 164.49 -23.0496 163.5 -22.2096 162.65C-20.2896 160.71 -18.4096 158.73 -16.5296 156.79C-17.9296 154.95 -20.0196 153.74 -20.9496 151.49C-20.8196 151.31 -20.6896 151.14 -20.4596 150.83C-21.8696 150.83 -23.1096 150.83 -24.1596 150.83C-24.7296 150.29 -25.1596 149.88 -25.5696 149.49C-25.5696 146.5 -25.5696 143.55 -25.5696 140.61C-25.3296 140.36 -25.0896 140.12 -24.8796 139.9C-21.7696 139.9 -18.6896 139.9 -15.6796 139.9C-15.4396 140.15 -15.2596 140.34 -14.8996 140.7C-14.8996 141.85 -14.8996 143.19 -14.8996 144.52C-14.2196 144.52 -13.7196 144.52 -13.1796 144.52C-12.1996 145.55 -11.1996 146.59 -10.0996 147.74C-8.46957 145.16 -6.33957 143.06 -4.43957 140.75C-2.04957 137.86 0.450429 135.05 2.81043 132.13C4.61043 129.91 6.58043 127.84 8.48043 125.71C8.65043 125.52 8.93043 125.37 9.00043 125.15C9.54043 123.27 11.4004 122.51 12.3104 120.86C13.1904 119.28 14.8004 118.13 15.9404 116.96C20.3704 116.96 24.5404 116.96 28.5104 116.96C29.0704 117.37 29.4704 117.65 29.8604 117.94C29.8604 122.46 29.8604 126.97 29.8604 131.49C27.0704 133.94 24.1904 136.29 21.5204 138.87C18.8804 141.41 16.1404 143.81 13.4004 146.22C11.0704 148.26 8.90043 150.49 6.66043 152.63C6.48043 152.81 6.33043 153.04 6.12043 153.17C3.89043 154.59 2.24043 156.74 0.0104284 158.22C1.15043 159.36 2.16043 160.4 3.25043 161.53C3.25043 162.03 3.25043 162.61 3.25043 163.28C4.57043 163.28 5.81043 163.28 6.95043 163.28C7.21043 163.55 7.54043 163.74 7.55043 163.92C7.58043 167.1 7.57043 170.29 7.57043 173.57C7.43043 173.72 7.19043 173.96 7.02043 174.14C4.04043 174.14 1.13043 174.14 -1.77957 174.14C-1.67957 174.01 -1.57957 173.88 -1.47957 173.74C-2.00957 173.46 -2.54957 173.19 -2.94957 172.98C-2.94957 171.52 -2.94957 170.32 -2.94957 169.03C-3.26957 169.2 -3.49957 169.32 -3.71957 169.44C-5.74957 168.33 -6.99957 166.35 -8.69957 164.86C-10.5096 166.74 -12.3696 168.61 -14.1696 170.55C-15.0996 171.55 -16.1396 172.2 -17.4896 172.2C-17.4896 173.33 -17.4296 174.28 -17.5096 175.23C-17.5696 175.75 -17.8396 176.27 -18.0096 176.81Z" fill="white" style="fill-opacity: 0.01;"/>
<path d="M183.8 176.81C180.78 176.81 177.75 176.81 174.73 176.81C174.4 176.34 174.07 175.88 173.75 175.43C173.75 172.48 173.75 169.54 173.75 166.65C174.02 166.36 174.25 166.11 174.56 165.78C175.73 165.78 176.96 165.78 178.18 165.78C178.28 164.49 178.76 163.5 179.6 162.65C181.52 160.71 183.4 158.73 185.28 156.79C183.88 154.95 181.77 153.74 180.86 151.49C180.99 151.31 181.12 151.14 181.35 150.83C179.94 150.83 178.7 150.83 177.65 150.83C177.08 150.29 176.65 149.88 176.24 149.49C176.24 146.5 176.24 143.55 176.24 140.61C176.48 140.36 176.72 140.12 176.93 139.9C180.01 139.9 183.12 139.9 186.13 139.9C186.37 140.15 186.55 140.34 186.91 140.7C186.91 141.85 186.91 143.19 186.91 144.52C187.59 144.52 188.09 144.52 188.63 144.52C189.61 145.55 190.61 146.59 191.71 147.74C193.34 145.16 195.47 143.06 197.37 140.75C199.76 137.86 202.26 135.05 204.62 132.13C206.42 129.91 208.39 127.84 210.29 125.71C210.46 125.52 210.74 125.37 210.81 125.15C211.35 123.27 213.21 122.51 214.12 120.86C215 119.28 216.61 118.13 217.75 116.96C222.18 116.96 226.35 116.96 230.32 116.96C230.88 117.37 231.28 117.65 231.67 117.94C231.67 122.46 231.67 126.97 231.67 131.49C228.88 133.94 226 136.29 223.33 138.87C220.69 141.41 217.95 143.81 215.21 146.22C212.88 148.26 210.71 150.49 208.47 152.63C208.29 152.81 208.14 153.04 207.93 153.17C205.7 154.59 204.05 156.74 201.86 158.22C202.96 159.36 203.97 160.4 205.06 161.53C205.06 162.03 205.06 162.61 205.06 163.28C206.38 163.28 207.62 163.28 208.76 163.28C209.02 163.55 209.35 163.74 209.36 163.92C209.39 167.1 209.38 170.29 209.38 173.57C209.24 173.72 209 173.96 208.83 174.14C205.85 174.14 202.94 174.14 200.01 174.14C200.13 174.01 200.23 173.88 200.33 173.74C199.8 173.46 199.26 173.19 198.86 172.98C198.86 171.52 198.86 170.32 198.86 169.03C198.54 169.2 198.31 169.32 198.09 169.44C196.06 168.33 194.81 166.35 193.11 164.86C191.3 166.74 189.44 168.61 187.64 170.55C186.71 171.55 185.67 172.2 184.32 172.2C184.32 173.33 184.38 174.28 184.3 175.23C184.23 175.75 183.96 176.27 183.8 176.81Z" fill="white" style="fill-opacity: 0.01;"/>
<path d="M78.9904 19.08C75.9704 19.08 72.9404 19.08 69.9204 19.08C69.5904 18.61 69.2604 18.15 68.9404 17.7C68.9404 14.75 68.9404 11.81 68.9404 8.91997C69.2104 8.62997 69.4404 8.37997 69.7504 8.04997C70.9204 8.04997 72.1504 8.04997 73.3704 8.04997C73.4704 6.75997 73.9504 5.76997 74.7904 4.91997C76.7104 2.97997 78.5904 0.999971 80.4704 -0.940029C79.0704 -2.78003 76.9604 -3.99003 76.0504 -6.24003C76.1804 -6.42003 76.3104 -6.59003 76.5404 -6.90003C75.1304 -6.90003 73.8904 -6.90003 72.8404 -6.90003C72.2704 -7.44003 71.8404 -7.85003 71.4304 -8.24003C71.4304 -11.23 71.4304 -14.18 71.4304 -17.12C71.6704 -17.37 71.9104 -17.61 72.1204 -17.83C75.2304 -17.83 78.3104 -17.83 81.3204 -17.83C81.5604 -17.58 81.7404 -17.39 82.1004 -17.03C82.1004 -15.88 82.1004 -14.54 82.1004 -13.21C82.7804 -13.21 83.2804 -13.21 83.8204 -13.21C84.8004 -12.2 85.8004 -11.15 86.9004 -10C88.5304 -12.58 90.6604 -14.68 92.5604 -16.99C94.9504 -19.88 97.4504 -22.69 99.8104 -25.61C101.61 -27.83 103.58 -29.9 105.48 -32.03C105.65 -32.22 105.93 -32.37 106 -32.59C106.54 -34.47 108.4 -35.23 109.31 -36.88C110.19 -38.46 111.8 -39.61 112.94 -40.78C117.37 -40.78 121.54 -40.78 125.51 -40.78C126.07 -40.37 126.47 -40.09 126.86 -39.8C126.86 -35.28 126.86 -30.77 126.86 -26.25C124.07 -23.8 121.19 -21.45 118.52 -18.87C115.88 -16.33 113.14 -13.93 110.4 -11.52C108.07 -9.48003 105.9 -7.25003 103.66 -5.11003C103.48 -4.93003 103.33 -4.70003 103.12 -4.57003C100.89 -3.15003 99.2404 -1.00003 97.0504 0.479969C98.1504 1.61997 99.1604 2.65997 100.25 3.78997C100.25 4.28997 100.25 4.86997 100.25 5.53997C101.57 5.53997 102.81 5.53997 103.95 5.53997C104.21 5.80997 104.54 5.99997 104.55 6.17997C104.58 9.35997 104.57 12.55 104.57 15.83C104.43 15.98 104.19 16.22 104.02 16.4C101.04 16.4 98.1304 16.4 95.2204 16.4C95.3204 16.27 95.4204 16.14 95.5204 16C94.9904 15.72 94.4504 15.45 94.0504 15.24C94.0504 13.78 94.0504 12.58 94.0504 11.29C93.7304 11.46 93.5004 11.58 93.2804 11.7C91.2504 10.59 90.0004 8.60997 88.3004 7.11997C86.4904 8.99997 84.6304 10.87 82.8304 12.81C81.9004 13.81 80.8604 14.46 79.5104 14.46C79.5104 15.59 79.5704 16.54 79.4904 17.49C79.4204 18.01 79.1504 18.54 78.9904 19.08Z" fill="white" style="fill-opacity: 0.01;"/>
<path d="M277.81 19.08C274.79 19.08 271.76 19.08 268.74 19.08C268.41 18.61 268.08 18.15 267.76 17.7C267.76 14.75 267.76 11.81 267.76 8.91998C268.03 8.62998 268.26 8.37998 268.57 8.04998C269.74 8.04998 270.97 8.04998 272.19 8.04998C272.29 6.75998 272.77 5.76998 273.61 4.91998C275.53 2.97998 277.41 0.999982 279.29 -0.940018C277.89 -2.78002 275.78 -3.99002 274.87 -6.24002C275 -6.42002 275.13 -6.59002 275.36 -6.90002C273.95 -6.90002 272.71 -6.90002 271.66 -6.90002C271.09 -7.44002 270.66 -7.85002 270.25 -8.24002C270.25 -11.23 270.25 -14.18 270.25 -17.12C270.49 -17.37 270.73 -17.61 270.94 -17.83C274.05 -17.83 277.13 -17.83 280.14 -17.83C280.38 -17.58 280.56 -17.39 280.92 -17.03C280.92 -15.88 280.92 -14.54 280.92 -13.21C281.6 -13.21 282.1 -13.21 282.64 -13.21C283.62 -12.18 284.62 -11.14 285.72 -9.99002C287.35 -12.57 289.48 -14.67 291.38 -16.98C293.77 -19.87 296.27 -22.68 298.63 -25.6C300.43 -27.82 302.4 -29.89 304.3 -32.02C304.47 -32.21 304.75 -32.36 304.82 -32.58C305.36 -34.46 307.22 -35.22 308.13 -36.87C309.01 -38.45 310.62 -39.6 311.76 -40.77C316.19 -40.77 320.36 -40.77 324.33 -40.77C324.89 -40.36 325.29 -40.01 325.68 -39.79C325.68 -35.27 325.68 -30.76 325.68 -26.24C322.89 -23.79 320.01 -21.44 317.34 -18.86C314.7 -16.32 311.96 -13.92 309.22 -11.51C306.89 -9.47002 304.72 -7.24002 302.48 -5.10002C302.3 -4.92002 302.15 -4.69002 301.94 -4.56002C299.71 -3.14002 298.06 -0.990017 295.87 0.489983C296.97 1.62998 297.98 2.66998 299.07 3.79998C299.07 4.29998 299.07 4.87998 299.07 5.54998C300.39 5.54998 301.63 5.54998 302.77 5.54998C303.03 5.81998 303.36 6.00998 303.37 6.18998C303.4 9.36998 303.39 12.56 303.39 15.84C303.25 15.99 303.01 16.23 302.84 16.41C299.86 16.41 296.95 16.41 294.04 16.41C294.14 16.28 294.24 16.15 294.34 16.01C293.81 15.73 293.27 15.46 292.87 15.25C292.87 13.79 292.87 12.59 292.87 11.3C292.55 11.47 292.32 11.59 292.1 11.71C290.07 10.6 288.82 8.61998 287.12 7.12998C285.31 9.00998 283.45 10.88 281.65 12.82C280.72 13.82 279.68 14.47 278.33 14.47C278.33 15.6 278.39 16.55 278.31 17.5C278.25 18.01 277.98 18.54 277.81 19.08Z" fill="white" style="fill-opacity: 0.01;"/>
<path d="M78.9904 419.08C75.9704 419.08 72.9404 419.08 69.9204 419.08C69.5904 418.61 69.2604 418.15 68.9404 417.7C68.9404 414.75 68.9404 411.81 68.9404 408.92C69.2104 408.63 69.4404 408.38 69.7504 408.05C70.9204 408.05 72.1504 408.05 73.3704 408.05C73.4704 406.76 73.9504 405.77 74.7904 404.92C76.7104 402.98 78.5904 401 80.4704 399.06C79.0704 397.22 76.9604 396.01 76.0504 393.76C76.1804 393.58 76.3104 393.41 76.5404 393.1C75.1304 393.1 73.8904 393.1 72.8404 393.1C72.2704 392.56 71.8404 392.15 71.4304 391.76C71.4304 388.77 71.4304 385.82 71.4304 382.88C71.6704 382.63 71.9104 382.39 72.1204 382.17C75.2304 382.17 78.3104 382.17 81.3204 382.17C81.5604 382.42 81.7404 382.61 82.1004 382.97C82.1004 384.12 82.1004 385.46 82.1004 386.79C82.7804 386.79 83.2804 386.79 83.8204 386.79C84.8004 387.82 85.8004 388.86 86.9004 390.01C88.5304 387.43 90.6604 385.33 92.5604 383.02C94.9504 380.13 97.4504 377.32 99.8104 374.4C101.61 372.18 103.58 370.11 105.48 367.98C105.65 367.79 105.93 367.64 106 367.42C106.54 365.54 108.4 364.78 109.31 363.13C110.19 361.55 111.8 360.4 112.94 359.23C117.37 359.23 121.54 359.23 125.51 359.23C126.07 359.64 126.47 359.92 126.86 360.21C126.86 364.73 126.86 369.24 126.86 373.76C124.07 376.21 121.19 378.56 118.52 381.14C115.88 383.68 113.14 386.08 110.4 388.49C108.07 390.53 105.9 392.76 103.66 394.9C103.48 395.08 103.33 395.31 103.12 395.44C100.89 396.86 99.2404 399.01 97.0504 400.49C98.1504 401.63 99.1604 402.67 100.25 403.8C100.25 404.3 100.25 404.88 100.25 405.55C101.57 405.55 102.81 405.55 103.95 405.55C104.21 405.82 104.54 406.01 104.55 406.19C104.58 409.37 104.57 412.56 104.57 415.84C104.43 415.99 104.19 416.23 104.02 416.41C101.04 416.41 98.1304 416.41 95.2204 416.41C95.3204 416.28 95.4204 416.15 95.5204 416.01C94.9904 415.73 94.4504 415.46 94.0504 415.25C94.0504 413.79 94.0504 412.59 94.0504 411.3C93.7304 411.47 93.5004 411.59 93.2804 411.71C91.2504 410.6 90.0004 408.62 88.3004 407.13C86.4904 409.01 84.6304 410.88 82.8304 412.82C81.9004 413.82 80.8604 414.47 79.5104 414.47C79.5104 415.6 79.5704 416.55 79.4904 417.5C79.4204 418.01 79.1504 418.54 78.9904 419.08Z" fill="white" style="fill-opacity: 0.01;"/>
<path d="M277.81 419.08C274.79 419.08 271.76 419.08 268.74 419.08C268.41 418.61 268.08 418.15 267.76 417.7C267.76 414.75 267.76 411.81 267.76 408.92C268.03 408.63 268.26 408.38 268.57 408.05C269.74 408.05 270.97 408.05 272.19 408.05C272.29 406.76 272.77 405.77 273.61 404.92C275.53 402.98 277.41 401 279.29 399.06C277.89 397.22 275.78 396.01 274.87 393.76C275 393.58 275.13 393.41 275.36 393.1C273.95 393.1 272.71 393.1 271.66 393.1C271.09 392.56 270.66 392.15 270.25 391.76C270.25 388.77 270.25 385.82 270.25 382.88C270.49 382.63 270.73 382.39 270.94 382.17C274.05 382.17 277.13 382.17 280.14 382.17C280.38 382.42 280.56 382.61 280.92 382.97C280.92 384.12 280.92 385.46 280.92 386.79C281.6 386.79 282.1 386.79 282.64 386.79C283.62 387.82 284.62 388.86 285.72 390.01C287.35 387.43 289.48 385.33 291.38 383.02C293.77 380.13 296.27 377.32 298.63 374.4C300.43 372.18 302.4 370.11 304.3 367.98C304.47 367.79 304.75 367.64 304.82 367.42C305.36 365.54 307.22 364.78 308.13 363.13C309.01 361.55 310.62 360.4 311.76 359.23C316.19 359.23 320.36 359.23 324.33 359.23C324.89 359.64 325.29 359.92 325.68 360.21C325.68 364.73 325.68 369.24 325.68 373.76C322.89 376.21 320.01 378.56 317.34 381.14C314.7 383.68 311.96 386.08 309.22 388.49C306.89 390.53 304.72 392.76 302.48 394.9C302.3 395.08 302.15 395.31 301.94 395.44C299.71 396.86 298.06 399.01 295.87 400.49C296.97 401.63 297.98 402.67 299.07 403.8C299.07 404.3 299.07 404.88 299.07 405.55C300.39 405.55 301.63 405.55 302.77 405.55C303.03 405.82 303.36 406.01 303.37 406.19C303.4 409.37 303.39 412.56 303.39 415.84C303.25 415.99 303.01 416.23 302.84 416.41C299.86 416.41 296.95 416.41 294.04 416.41C294.14 416.28 294.24 416.15 294.34 416.01C293.81 415.73 293.27 415.46 292.87 415.25C292.87 413.79 292.87 412.59 292.87 411.3C292.55 411.47 292.32 411.59 292.1 411.71C290.07 410.6 288.82 408.62 287.12 407.13C285.31 409.01 283.45 410.88 281.65 412.82C280.72 413.82 279.68 414.47 278.33 414.47C278.33 415.6 278.39 416.55 278.31 417.5C278.25 418.01 277.98 418.54 277.81 419.08Z" fill="white" style="fill-opacity: 0.01;"/>
<path d="M381.99 176.81C378.97 176.81 375.94 176.81 372.92 176.81C372.59 176.34 372.26 175.88 371.94 175.43C371.94 172.48 371.94 169.54 371.94 166.65C372.21 166.36 372.44 166.11 372.75 165.78C373.92 165.78 375.15 165.78 376.37 165.78C376.47 164.49 376.95 163.5 377.79 162.65C379.71 160.71 381.59 158.73 383.47 156.79C382.07 154.95 379.96 153.74 379.05 151.49C379.18 151.31 379.31 151.14 379.54 150.83C378.13 150.83 376.89 150.83 375.84 150.83C375.27 150.29 374.84 149.88 374.43 149.49C374.43 146.5 374.43 143.55 374.43 140.61C374.67 140.36 374.91 140.12 375.12 139.9C378.23 139.9 381.31 139.9 384.32 139.9C384.56 140.15 384.74 140.34 385.1 140.7C385.1 141.85 385.1 143.19 385.1 144.52C385.78 144.52 386.28 144.52 386.82 144.52C387.8 145.55 388.8 146.59 389.9 147.74C391.53 145.16 393.66 143.06 395.56 140.75C397.95 137.86 400.45 135.05 402.81 132.13C404.61 129.91 406.58 127.84 408.48 125.71C408.65 125.52 408.93 125.37 409 125.15C409.54 123.27 411.4 122.51 412.31 120.86C413.19 119.28 414.8 118.13 415.94 116.96C420.37 116.96 424.54 116.96 428.51 116.96C429.07 117.37 429.47 117.65 429.86 117.94C429.86 122.46 429.86 126.97 429.86 131.49C427.07 133.94 424.19 136.29 421.52 138.87C418.88 141.41 416.14 143.81 413.4 146.22C411.07 148.26 408.9 150.49 406.66 152.63C406.48 152.81 406.33 153.04 406.12 153.17C403.89 154.59 402.24 156.74 400.01 158.22C401.15 159.36 402.16 160.4 403.25 161.53C403.25 162.03 403.25 162.61 403.25 163.28C404.57 163.28 405.81 163.28 406.95 163.28C407.21 163.55 407.54 163.74 407.55 163.92C407.58 167.1 407.57 170.29 407.57 173.57C407.43 173.72 407.19 173.96 407.02 174.14C404.04 174.14 401.13 174.14 398.22 174.14C398.32 174.01 398.42 173.88 398.52 173.74C397.99 173.46 397.45 173.19 397.05 172.98C397.05 171.52 397.05 170.32 397.05 169.03C396.73 169.2 396.5 169.32 396.28 169.44C394.25 168.33 393 166.35 391.3 164.86C389.49 166.74 387.63 168.61 385.83 170.55C384.9 171.55 383.86 172.2 382.51 172.2C382.51 173.33 382.57 174.28 382.49 175.23C382.43 175.75 382.16 176.27 381.99 176.81Z" fill="white" style="fill-opacity: 0.01;"/>
<path d="M304.71 311.83C297.36 313.87 290.28 313.24 283.53 309.61C282.86 309.25 282.47 309.39 281.94 309.78C278.31 312.4 274.56 314.84 270.54 316.83C268.58 317.8 266.58 318.69 264.39 318.99C261.64 319.37 260.45 318.12 261.01 315.39C261.51 312.96 262.72 310.82 263.98 308.72C266.18 305.06 268.75 301.66 271.47 298.38C271.86 297.91 271.95 297.57 271.66 296.97C265.51 284.03 270.68 268.04 283.31 261.22C292.16 256.44 301.11 256.53 310.01 261.16C310.6 261.46 310.96 261.39 311.45 261.04C315.28 258.29 319.22 255.72 323.49 253.68C325.17 252.88 326.89 252.17 328.74 251.85C329.43 251.73 330.12 251.68 330.8 251.83C331.78 252.04 332.33 252.63 332.5 253.63C332.62 254.35 332.52 255.05 332.34 255.75C331.72 258.19 330.5 260.36 329.2 262.49C327.07 265.97 324.62 269.21 322.02 272.34C321.62 272.82 321.52 273.18 321.81 273.81C328.22 287.64 322.15 304.06 308.29 310.46C307.13 310.98 305.95 311.48 304.71 311.83Z" fill="white" style="fill-opacity: 0.01;"/>
<path d="M75.1005 199.25C75.3005 197.54 75.4905 195.96 75.6805 194.38C75.9205 192.38 76.1605 190.38 76.4205 188.39C76.5005 187.8 76.6105 187.22 76.7305 186.64C76.8005 186.28 76.7205 186.01 76.4505 185.73C73.7405 182.88 71.0205 180.01 68.3605 177.15C67.5305 176.25 67.0205 175.16 66.6505 173.94C66.1105 172.17 66.4605 170.51 67.1005 168.99C67.7705 167.38 69.0305 166.08 70.8705 165.66C75.1505 164.68 79.4605 163.81 83.7805 163.03C84.1305 162.97 84.3505 162.83 84.5105 162.51C85.7505 160.06 87.1305 157.69 88.4705 155.29C89.3105 153.78 89.9405 152.14 91.0505 150.8C91.7805 149.91 92.7205 149.3 93.8305 148.9C95.7005 148.23 97.5305 148.36 99.3505 148.97C100.311 149.29 101.121 149.91 101.771 150.66C102.791 151.83 103.391 153.27 104.121 154.63C104.941 156.16 105.801 157.66 106.641 159.18C107.241 160.27 107.841 161.36 108.411 162.47C108.581 162.8 108.801 162.97 109.171 163.03C113.581 163.81 117.961 164.73 122.331 165.69C123.231 165.89 123.951 166.51 124.551 167.12C125.271 167.86 125.801 168.76 126.151 169.82C126.761 171.65 126.481 173.37 125.921 175.09C125.651 175.92 125.051 176.59 124.461 177.22C121.781 180.1 119.081 182.96 116.381 185.81C116.131 186.08 116.161 186.35 116.211 186.63C116.891 190.52 117.261 194.44 117.691 198.36C117.921 200.54 117.301 202.55 115.781 204.14C115.061 204.9 114.131 205.46 113.041 205.79C111.381 206.29 109.801 206.21 108.191 205.7C106.811 205.27 105.561 204.56 104.251 203.99C101.731 202.88 99.2905 201.58 96.7505 200.5C96.5305 200.41 96.3805 200.41 96.1705 200.51C94.5405 201.26 92.8705 201.91 91.2905 202.75C89.4105 203.75 87.4505 204.59 85.5105 205.44C83.6605 206.24 81.6905 206.46 79.7005 205.73C78.5705 205.32 77.6705 204.65 76.8505 203.79C75.5705 202.5 75.5005 200.75 75.1005 199.25Z" fill="white" style="fill-opacity: 0.01;"/>
<path d="M273.06 199.25C273.26 197.54 273.451 195.96 273.641 194.38C273.881 192.38 274.12 190.38 274.38 188.39C274.46 187.8 274.57 187.22 274.69 186.64C274.76 186.28 274.68 186.01 274.41 185.73C271.7 182.88 268.98 180.01 266.32 177.15C265.49 176.25 264.98 175.16 264.61 173.94C264.07 172.17 264.42 170.51 265.06 168.99C265.73 167.38 266.99 166.08 268.83 165.66C273.11 164.68 277.42 163.81 281.74 163.03C282.09 162.97 282.31 162.83 282.47 162.51C283.71 160.06 285.09 157.69 286.43 155.29C287.27 153.78 287.9 152.14 289.01 150.8C289.74 149.91 290.68 149.3 291.79 148.9C293.66 148.23 295.49 148.36 297.31 148.97C298.27 149.29 299.08 149.91 299.73 150.66C300.75 151.83 301.35 153.27 302.08 154.63C302.9 156.16 303.76 157.66 304.6 159.18C305.2 160.27 305.8 161.36 306.37 162.47C306.54 162.8 306.76 162.97 307.13 163.03C311.54 163.81 315.92 164.73 320.29 165.69C321.19 165.89 321.91 166.51 322.51 167.12C323.23 167.86 323.76 168.76 324.11 169.82C324.72 171.65 324.44 173.37 323.88 175.09C323.61 175.92 323.011 176.59 322.421 177.22C319.741 180.1 317.04 182.96 314.34 185.81C314.09 186.08 314.121 186.35 314.171 186.63C314.851 190.52 315.22 194.44 315.65 198.36C315.88 200.54 315.26 202.55 313.74 204.14C313.02 204.9 312.09 205.46 311 205.79C309.34 206.29 307.76 206.21 306.15 205.7C304.77 205.27 303.52 204.56 302.21 203.99C299.69 202.88 297.25 201.58 294.71 200.5C294.49 200.41 294.34 200.41 294.13 200.51C292.5 201.26 290.83 201.91 289.25 202.75C287.37 203.75 285.41 204.59 283.47 205.44C281.62 206.24 279.65 206.46 277.66 205.73C276.53 205.32 275.63 204.65 274.81 203.79C273.54 202.5 273.46 200.75 273.06 199.25Z" fill="white" style="fill-opacity: 0.01;"/>
<path d="M181.37 368.75C181.57 367.04 181.76 365.46 181.95 363.88C182.19 361.88 182.43 359.88 182.69 357.89C182.77 357.3 182.88 356.72 183 356.14C183.07 355.78 182.99 355.51 182.72 355.23C180.01 352.38 177.29 349.54 174.63 346.65C173.8 345.75 173.29 344.66 172.92 343.44C172.38 341.67 172.73 340.01 173.37 338.49C174.04 336.88 175.3 335.58 177.14 335.16C181.42 334.18 185.73 333.31 190.01 332.53C190.4 332.47 190.62 332.33 190.78 332.01C192.02 329.56 193.4 327.18 194.74 324.79C195.58 323.28 196.21 321.64 197.32 320.3C198.05 319.41 198.99 318.8 200.1 318.4C201.97 317.73 203.8 317.86 205.62 318.47C206.58 318.79 207.39 319.41 208.04 320.16C209.06 321.33 209.66 322.77 210.39 324.13C211.21 325.66 212.07 327.16 212.91 328.68C213.51 329.77 214.11 330.86 214.68 331.97C214.85 332.3 215.07 332.47 215.44 332.53C219.85 333.31 224.23 334.23 228.6 335.19C229.5 335.39 230.22 336.01 230.82 336.62C231.54 337.36 232.07 338.26 232.42 339.32C233.03 341.15 232.75 342.87 232.19 344.59C231.92 345.42 231.32 346.09 230.73 346.72C228.05 349.6 225.35 352.46 222.65 355.31C222.4 355.58 222.43 355.85 222.48 356.13C223.16 360.01 223.53 363.94 223.96 367.86C224.19 370.01 223.57 372.05 222.05 373.64C221.33 374.4 220.4 374.96 219.31 375.29C217.65 375.79 216.07 375.71 214.46 375.2C213.08 374.77 211.83 374.06 210.52 373.49C208 372.38 205.56 371.08 203.02 370C202.8 369.91 202.65 369.91 202.44 370.01C200.81 370.76 199.14 371.41 197.56 372.25C195.68 373.25 193.72 374.09 191.78 374.94C189.93 375.74 187.96 375.96 185.97 375.23C184.84 374.82 183.94 374.15 183.12 373.29C181.85 371.99 181.77 370.25 181.37 368.75Z" fill="white" style="fill-opacity: 0.01;"/>
<path d="M378.66 368.75C378.86 367.04 379.05 365.46 379.24 363.88C379.48 361.88 379.72 359.88 379.98 357.89C380.06 357.3 380.17 356.72 380.29 356.14C380.36 355.78 380.28 355.51 380.01 355.23C377.3 352.38 374.58 349.54 371.92 346.65C371.09 345.75 370.58 344.66 370.21 343.44C369.67 341.67 370.01 340.01 370.66 338.49C371.33 336.88 372.59 335.58 374.43 335.16C378.71 334.18 383.02 333.31 387.34 332.53C387.69 332.47 387.91 332.33 388.07 332.01C389.31 329.56 390.69 327.18 392.03 324.79C392.87 323.28 393.5 321.64 394.61 320.3C395.34 319.41 396.28 318.8 397.39 318.4C399.26 317.73 401.09 317.86 402.91 318.47C403.87 318.79 404.68 319.41 405.33 320.16C406.35 321.33 406.95 322.77 407.68 324.13C408.5 325.66 409.36 327.16 410.2 328.68C410.8 329.77 411.4 330.86 411.97 331.97C412.14 332.3 412.36 332.47 412.73 332.53C417.14 333.31 421.52 334.23 425.89 335.19C426.79 335.39 427.51 336.01 428.11 336.62C428.83 337.36 429.36 338.26 429.71 339.32C430.32 341.15 430.01 342.87 429.48 344.59C429.21 345.42 428.61 346.09 428.02 346.72C425.34 349.6 422.64 352.46 419.94 355.31C419.69 355.58 419.72 355.85 419.77 356.13C420.45 360.01 420.82 363.94 421.25 367.86C421.48 370.01 420.86 372.05 419.34 373.64C418.62 374.4 417.69 374.96 416.6 375.29C414.94 375.79 413.36 375.71 411.75 375.2C410.37 374.77 409.12 374.06 407.81 373.49C405.29 372.38 402.85 371.08 400.31 370C400.09 369.91 399.94 369.91 399.73 370.01C398.1 370.76 396.43 371.41 394.85 372.25C392.97 373.25 391.01 374.09 389.07 374.94C387.22 375.74 385.25 375.96 383.26 375.23C382.13 374.82 381.23 374.15 380.41 373.29C379.14 371.99 379.06 370.25 378.66 368.75Z" fill="white" style="fill-opacity: 0.01;"/>
<path d="M-21.1798 368.75C-20.9798 367.04 -20.7898 365.46 -20.5998 363.88C-20.3598 361.88 -20.1198 359.88 -19.8598 357.89C-19.7798 357.3 -19.6698 356.72 -19.5498 356.14C-19.4798 355.78 -19.5598 355.51 -19.8298 355.23C-22.5398 352.38 -25.2598 349.54 -27.9198 346.65C-28.7498 345.75 -29.2598 344.66 -29.6298 343.44C-30.1698 341.67 -29.8198 340.01 -29.1798 338.49C-28.5098 336.88 -27.2498 335.58 -25.4098 335.16C-21.1298 334.18 -16.8198 333.31 -12.4998 332.53C-12.1498 332.47 -11.9298 332.33 -11.7698 332.01C-10.5298 329.56 -9.14976 327.18 -7.80976 324.79C-6.96976 323.28 -6.33976 321.64 -5.22976 320.3C-4.49976 319.41 -3.55976 318.8 -2.44976 318.4C-0.579759 317.73 1.25024 317.86 3.07024 318.47C4.03024 318.79 4.84024 319.41 5.49024 320.16C6.51024 321.33 7.11024 322.77 7.84024 324.13C8.66024 325.66 9.52024 327.16 10.3602 328.68C10.9602 329.77 11.5602 330.86 12.1302 331.97C12.3002 332.3 12.5202 332.47 12.8902 332.53C17.3002 333.31 21.6802 334.23 26.0502 335.19C26.9502 335.39 27.6702 336.01 28.2702 336.62C28.9902 337.36 29.5202 338.26 29.8702 339.32C30.4802 341.15 30.2002 342.87 29.6402 344.59C29.3702 345.42 28.7702 346.09 28.1802 346.72C25.5002 349.6 22.8002 352.46 20.1002 355.31C19.8502 355.58 19.8802 355.85 19.9302 356.13C20.6102 360.01 20.9802 363.94 21.4102 367.86C21.6402 370.01 21.0202 372.05 19.5002 373.64C18.7802 374.4 17.8502 374.96 16.7602 375.29C15.1002 375.79 13.5202 375.71 11.9102 375.2C10.5302 374.77 9.28024 374.06 7.97024 373.49C5.45024 372.38 3.01024 371.08 0.470242 370C0.250242 369.91 0.100242 369.91 -0.109758 370.01C-1.73976 370.76 -3.40976 371.41 -4.98976 372.25C-6.86976 373.25 -8.82976 374.09 -10.7698 374.94C-12.6198 375.74 -14.5898 375.96 -16.5798 375.23C-17.7098 374.82 -18.6098 374.15 -19.4298 373.29C-20.6998 371.99 -20.7798 370.25 -21.1798 368.75Z" fill="white" style="fill-opacity: 0.01;"/>
<path d="M232.98 255.86C233.34 255.43 233.66 254.98 233.94 254.5C236.79 249.56 235.75 243.67 231.38 240.01C222.73 232.78 214.08 225.55 205.44 218.32C205.05 218 204.65 217.69 204.23 217.41C199.56 214.32 193.16 215.23 189.56 219.53C183.84 226.35 178.14 233.18 172.44 240C171.84 240.71 171.35 241.5 170.96 242.34C168.78 247.04 169.98 252.45 173.96 255.78C178.3 259.42 182.65 263.04 186.99 266.68C191.36 270.33 195.72 273.99 200.1 277.64C204.91 281.65 211.93 281.02 215.96 276.22C221.64 269.43 227.3 262.64 232.98 255.86ZM186.82 249.48C185.82 248.91 185.02 248.02 184.11 247.3C183.28 246.65 182.72 245.82 182.38 244.83C181.94 243.56 182.01 242.3 182.51 241.05C182.78 240.38 183.19 239.82 183.64 239.28C186.12 236.3 188.61 233.33 191.1 230.36C192.14 229.11 193.44 228.3 195.1 228.2C196.44 228.12 197.7 228.44 198.75 229.32C199.73 230.14 200.8 230.86 201.63 231.84C202.74 233.15 203.11 234.67 202.78 236.34C202.61 237.2 202.25 237.98 201.66 238.66C200.29 240.26 198.95 241.89 197.6 243.5C196.29 245.06 194.96 246.61 193.68 248.2C191.93 250.34 189.11 250.78 186.82 249.48ZM208.13 233.9C207.77 234.11 207.4 234.3 207.03 234.5C206.61 234.72 206.22 234.64 205.8 234.3C205.38 233.91 205.18 233.28 204.88 232.73C204.17 231.41 203.5 230.07 202.81 228.74C202.44 228.03 202.61 227.47 203.31 227.09C203.63 226.92 203.96 226.75 204.29 226.58C204.91 226.26 205.55 226.44 205.87 227.06C206.79 228.82 207.7 230.58 208.61 232.35C208.95 233 208.78 233.53 208.13 233.9ZM194.74 259.71C194.12 259.2 193.5 258.67 192.88 258.16C192.26 257.64 191.64 257.13 191.02 256.6C190.58 256.23 190.46 255.58 190.73 255.16C191.12 254.56 191.75 254.46 192.32 254.93C193.59 255.99 194.85 257.04 196.12 258.11C196.63 258.54 196.73 259.16 196.37 259.62C196.01 260.06 195.23 260.11 194.74 259.71ZM214.62 240.71C214.72 240.36 214.81 240 214.92 239.66C215.14 238.96 215.65 238.69 216.36 238.9C218.27 239.45 220.17 240.01 222.08 240.58C222.25 240.63 222.41 240.74 222.51 240.79C222.92 241.15 223.01 241.55 222.89 241.99C222.78 242.41 222.65 242.82 222.51 243.23C222.3 243.85 221.79 244.13 221.16 243.95C219.25 243.4 217.35 242.84 215.45 242.26C214.64 242.01 214.4 241.52 214.62 240.71ZM213.59 264.49C212.05 266.32 210.13 267.08 207.76 266.47C207.13 266.31 206.53 266.05 206.02 265.61C205.1 264.82 204.1 264.12 203.25 263.25C202.08 262.05 201.61 260.55 201.84 258.86C201.98 257.84 202.37 256.95 203.05 256.16C204.4 254.59 205.72 252.99 207.04 251.4C208.43 249.73 209.8 248.04 211.23 246.4C212.44 245.01 214.02 244.5 215.84 244.72C216.93 244.85 217.89 245.29 218.71 246.03C219.57 246.81 220.57 247.43 221.31 248.34C222.66 250.01 222.91 251.85 222.13 253.85C221.88 254.49 221.49 255.02 221.06 255.54C218.59 258.52 216.09 261.51 213.59 264.49Z" fill="white" style="fill-opacity: 0.01;"/>
<path d="M430.28 255.86C430.64 255.43 430.96 254.98 431.24 254.5C434.09 249.56 433.05 243.67 428.68 240.01C420.01 232.78 411.38 225.55 402.74 218.32C402.35 218 401.95 217.69 401.53 217.41C396.86 214.32 390.47 215.23 386.86 219.53C381.14 226.35 375.44 233.18 369.74 240C369.14 240.71 368.65 241.5 368.26 242.34C366.08 247.04 367.28 252.45 371.26 255.78C375.6 259.42 379.95 263.04 384.29 266.68C388.66 270.33 393.02 273.99 397.4 277.64C402.21 281.65 409.23 281.02 413.26 276.22C418.93 269.43 424.6 262.64 430.28 255.86ZM384.11 249.48C383.11 248.91 382.31 248.02 381.4 247.3C380.57 246.65 380.01 245.82 379.67 244.83C379.23 243.56 379.3 242.3 379.8 241.05C380.07 240.38 380.48 239.82 380.93 239.28C383.41 236.3 385.9 233.33 388.39 230.36C389.43 229.11 390.73 228.3 392.39 228.2C393.73 228.12 394.99 228.44 396.04 229.32C397.02 230.14 398.09 230.86 398.92 231.84C400.01 233.15 400.4 234.67 400.07 236.34C399.9 237.2 399.54 237.98 398.95 238.66C397.58 240.26 396.24 241.89 394.89 243.5C393.58 245.06 392.25 246.61 390.97 248.2C389.22 250.34 386.41 250.78 384.11 249.48ZM405.42 233.9C405.06 234.11 404.69 234.3 404.32 234.5C403.9 234.72 403.51 234.64 403.09 234.3C402.67 233.91 402.47 233.28 402.17 232.73C401.46 231.41 400.79 230.07 400.1 228.74C399.73 228.03 399.9 227.47 400.6 227.09C400.92 226.92 401.25 226.75 401.58 226.58C402.2 226.26 402.84 226.44 403.16 227.06C404.08 228.82 404.99 230.58 405.9 232.35C406.24 233 406.07 233.53 405.42 233.9ZM392.03 259.71C391.41 259.2 390.79 258.67 390.17 258.16C389.55 257.64 388.93 257.13 388.31 256.6C387.87 256.23 387.75 255.58 388.02 255.16C388.41 254.56 389.04 254.46 389.61 254.93C390.88 255.99 392.14 257.04 393.41 258.11C393.92 258.54 394.02 259.16 393.66 259.62C393.31 260.06 392.52 260.11 392.03 259.71ZM411.92 240.71C412.02 240.36 412.11 240 412.22 239.66C412.44 238.96 412.95 238.69 413.66 238.9C415.57 239.45 417.47 240.01 419.38 240.58C419.55 240.63 419.71 240.74 419.81 240.79C420.22 241.15 420.31 241.55 420.19 241.99C420.01 242.41 419.95 242.82 419.81 243.23C419.6 243.85 419.09 244.13 418.46 243.95C416.55 243.4 414.65 242.84 412.75 242.26C411.94 242.01 411.69 241.52 411.92 240.71ZM410.88 264.49C409.34 266.32 407.42 267.08 405.05 266.47C404.42 266.31 403.82 266.05 403.31 265.61C402.39 264.82 401.39 264.12 400.54 263.25C399.37 262.05 398.9 260.55 399.13 258.86C399.27 257.84 399.66 256.95 400.34 256.16C401.69 254.59 403.01 252.99 404.33 251.4C405.72 249.73 407.09 248.04 408.52 246.4C409.73 245.01 411.31 244.5 413.13 244.72C414.22 244.85 415.18 245.29 416 246.03C416.86 246.81 417.86 247.43 418.6 248.34C419.95 250.01 420.2 251.85 419.42 253.85C419.17 254.49 418.78 255.02 418.35 255.54C415.88 258.52 413.39 261.51 410.88 264.49Z" fill="white" style="fill-opacity: 0.01;"/>
<path d="M30.2801 255.86C30.6401 255.43 30.9601 254.98 31.2401 254.5C34.0901 249.56 33.0501 243.67 28.6801 240.01C20.0101 232.78 11.3801 225.55 2.74014 218.32C2.35014 218 1.95014 217.69 1.53014 217.41C-3.13986 214.32 -9.52986 215.23 -13.1399 219.53C-18.8599 226.35 -24.5599 233.18 -30.2599 240C-30.8599 240.71 -31.3499 241.5 -31.7399 242.34C-33.9199 247.04 -32.7199 252.45 -28.7399 255.78C-24.3999 259.42 -20.0199 263.04 -15.7099 266.68C-11.3399 270.33 -6.97986 273.99 -2.59986 277.64C2.21014 281.65 9.23014 281.02 13.2601 276.22C18.9301 269.43 24.6001 262.64 30.2801 255.86ZM-15.8899 249.48C-16.8899 248.91 -17.6899 248.02 -18.5999 247.3C-19.4299 246.65 -19.9899 245.82 -20.3299 244.83C-20.7699 243.56 -20.6999 242.3 -20.1999 241.05C-19.9299 240.38 -19.5199 239.82 -19.0699 239.28C-16.5899 236.3 -14.0999 233.33 -11.6099 230.36C-10.5699 229.11 -9.26986 228.3 -7.60986 228.2C-6.26986 228.12 -5.00986 228.44 -3.95986 229.32C-2.97986 230.14 -1.90986 230.86 -1.07986 231.84C0.0101355 233.15 0.400137 234.67 0.070137 236.34C-0.099863 237.2 -0.459864 237.98 -1.04986 238.66C-2.41986 240.26 -3.75986 241.89 -5.10986 243.5C-6.41986 245.06 -7.74986 246.61 -9.02986 248.2C-10.7799 250.34 -13.5899 250.78 -15.8899 249.48ZM5.42014 233.9C5.06014 234.11 4.69014 234.3 4.32014 234.5C3.90014 234.72 3.51014 234.64 3.09014 234.3C2.67014 233.91 2.47014 233.28 2.17014 232.73C1.46014 231.41 0.790136 230.07 0.100136 228.74C-0.269864 228.03 -0.0998642 227.47 0.600136 227.09C0.920136 226.92 1.25014 226.75 1.58014 226.58C2.20014 226.26 2.84014 226.44 3.16014 227.06C4.08014 228.82 4.99014 230.58 5.90014 232.35C6.24014 233 6.07014 233.53 5.42014 233.9ZM-7.96986 259.71C-8.58986 259.2 -9.20986 258.67 -9.82986 258.16C-10.4499 257.64 -11.0699 257.13 -11.6899 256.6C-12.1299 256.23 -12.2499 255.58 -11.9799 255.16C-11.5899 254.56 -10.9599 254.46 -10.3899 254.93C-9.11986 255.99 -7.85986 257.04 -6.58986 258.11C-6.07986 258.54 -5.97986 259.16 -6.33986 259.62C-6.68986 260.06 -7.47986 260.11 -7.96986 259.71ZM11.9201 240.71C12.0201 240.36 12.1101 240 12.2201 239.66C12.4401 238.96 12.9501 238.69 13.6601 238.9C15.5701 239.45 17.4701 240.01 19.3801 240.58C19.5501 240.63 19.7101 240.74 19.8101 240.79C20.2201 241.15 20.3101 241.55 20.1901 241.99C20.0101 242.41 19.9501 242.82 19.8101 243.23C19.6001 243.85 19.0901 244.13 18.4601 243.95C16.5501 243.4 14.6501 242.84 12.7501 242.26C11.9401 242.01 11.6901 241.52 11.9201 240.71ZM10.8801 264.49C9.34013 266.32 7.42014 267.08 5.05014 266.47C4.42014 266.31 3.82013 266.05 3.31013 265.61C2.39013 264.82 1.39013 264.12 0.540134 263.25C-0.629866 262.05 -1.09986 260.55 -0.869864 258.86C-0.729864 257.84 -0.339863 256.95 0.340137 256.16C1.69014 254.59 3.01014 252.99 4.33014 251.4C5.72014 249.73 7.09014 248.04 8.52014 246.4C9.73014 245.01 11.3101 244.5 13.1301 244.72C14.2201 244.85 15.1801 245.29 16.0001 246.03C16.8601 246.81 17.8601 247.43 18.6001 248.34C19.9501 250.01 20.2001 251.85 19.4201 253.85C19.1701 254.49 18.7801 255.02 18.3501 255.54C15.8801 258.52 13.3901 261.51 10.8801 264.49Z" fill="white" style="fill-opacity: 0.01;"/>
<path d="M123.44 86.76C123.8 86.33 124.12 85.88 124.4 85.4C127.25 80.46 126.21 74.57 121.84 70.91C113.19 63.68 104.54 56.45 95.9003 49.22C95.5103 48.9 95.1103 48.59 94.6903 48.31C90.0103 45.22 83.6303 46.13 80.0103 50.43C74.3003 57.25 68.6003 64.08 62.9003 70.9C62.3003 71.61 61.8103 72.4 61.4203 73.24C59.2403 77.94 60.4403 83.35 64.4203 86.68C68.7603 90.32 73.1103 93.94 77.4503 97.58C81.8203 101.23 86.1803 104.89 90.5603 108.54C95.3703 112.55 102.39 111.92 106.42 107.12C112.09 100.34 117.76 93.55 123.44 86.76ZM77.2703 80.38C76.2703 79.81 75.4703 78.92 74.5603 78.2C73.7303 77.55 73.1703 76.72 72.8303 75.73C72.3903 74.46 72.4603 73.2 72.9603 71.95C73.2303 71.28 73.6403 70.72 74.0903 70.18C76.5703 67.2 79.0603 64.23 81.5503 61.26C82.5903 60.01 83.8903 59.2 85.5503 59.1C86.8903 59.02 88.1503 59.34 89.2003 60.22C90.1803 61.04 91.2503 61.76 92.0803 62.74C93.1903 64.05 93.5603 65.57 93.2303 67.24C93.0603 68.1 92.7003 68.88 92.1103 69.56C90.7403 71.16 89.4003 72.79 88.0503 74.4C86.7403 75.96 85.4103 77.51 84.1303 79.1C82.3803 81.24 79.5703 81.69 77.2703 80.38ZM98.5803 64.81C98.2203 65.02 97.8503 65.21 97.4803 65.41C97.0603 65.63 96.6703 65.55 96.2503 65.21C95.8303 64.82 95.6303 64.19 95.3303 63.64C94.6203 62.32 93.9503 60.98 93.2603 59.65C92.8903 58.94 93.0603 58.38 93.7603 58C94.0803 57.83 94.4103 57.66 94.7403 57.49C95.3603 57.17 96.0003 57.35 96.3203 57.97C97.2403 59.73 98.1503 61.49 99.0603 63.26C99.4003 63.91 99.2303 64.43 98.5803 64.81ZM85.1903 90.62C84.5703 90.11 83.9503 89.58 83.3303 89.07C82.7103 88.56 82.0903 88.04 81.4703 87.51C81.0303 87.14 80.9103 86.49 81.1803 86.07C81.5703 85.47 82.2003 85.37 82.7703 85.84C84.0403 86.9 85.3003 87.95 86.5703 89.02C87.0803 89.45 87.1803 90.07 86.8203 90.53C86.4703 90.97 85.6803 91.02 85.1903 90.62ZM105.08 71.62C105.18 71.27 105.27 70.91 105.38 70.57C105.6 69.87 106.11 69.6 106.82 69.81C108.73 70.36 110.63 70.92 112.54 71.49C112.71 71.54 112.87 71.65 112.97 71.7C113.38 72.06 113.47 72.46 113.35 72.9C113.24 73.32 113.11 73.73 112.97 74.14C112.76 74.76 112.25 75.04 111.62 74.86C109.71 74.31 107.81 73.75 105.91 73.17C105.1 72.92 104.85 72.43 105.08 71.62ZM104.04 95.4C102.5 97.23 100.58 97.99 98.2103 97.38C97.5803 97.22 96.9803 96.96 96.4703 96.52C95.5503 95.73 94.5503 95.03 93.7003 94.16C92.5303 92.96 92.0603 91.46 92.2903 89.77C92.4303 88.75 92.8203 87.86 93.5003 87.07C94.8503 85.5 96.1703 83.9 97.4903 82.31C98.8803 80.64 100.25 78.95 101.68 77.31C102.89 75.92 104.47 75.41 106.29 75.63C107.38 75.76 108.34 76.2 109.16 76.94C110.01 77.72 111.02 78.34 111.76 79.25C113.11 80.92 113.36 82.76 112.58 84.76C112.33 85.4 111.94 85.93 111.51 86.45C109.04 89.43 106.55 92.42 104.04 95.4Z" fill="white" style="fill-opacity: 0.01;"/>
<path d="M322.43 86.76C322.79 86.33 323.11 85.88 323.39 85.4C326.24 80.46 325.2 74.57 320.83 70.91C312.18 63.68 303.53 56.45 294.89 49.22C294.5 48.9 294.1 48.59 293.68 48.31C289 45.23 282.6 46.14 279 50.44C273.28 57.26 267.58 64.09 261.88 70.91C261.28 71.62 260.79 72.41 260.4 73.25C258.22 77.95 259.42 83.36 263.4 86.69C267.74 90.33 272.09 93.95 276.43 97.59C280.8 101.24 285.16 104.9 289.54 108.55C294.35 112.56 301.37 111.93 305.4 107.13C311.09 100.34 316.75 93.55 322.43 86.76ZM276.26 80.38C275.26 79.81 274.46 78.92 273.55 78.2C272.72 77.55 272.16 76.72 271.82 75.73C271.38 74.46 271.45 73.2 271.95 71.95C272.22 71.28 272.63 70.72 273.08 70.18C275.56 67.2 278.05 64.23 280.54 61.26C281.58 60.01 282.88 59.2 284.54 59.1C285.88 59.02 287.14 59.34 288.19 60.22C289.17 61.04 290.24 61.76 291.07 62.74C292.18 64.05 292.55 65.57 292.22 67.24C292.05 68.1 291.69 68.88 291.1 69.56C289.73 71.16 288.39 72.79 287.04 74.4C285.73 75.96 284.4 77.51 283.12 79.1C281.38 81.24 278.56 81.69 276.26 80.38ZM297.58 64.81C297.22 65.02 296.85 65.21 296.48 65.41C296.06 65.63 295.67 65.55 295.25 65.21C294.83 64.82 294.63 64.19 294.33 63.64C293.62 62.32 292.95 60.98 292.26 59.65C291.89 58.94 292.06 58.38 292.76 58C293.08 57.83 293.41 57.66 293.74 57.49C294.36 57.17 295 57.35 295.32 57.97C296.24 59.73 297.15 61.49 298.06 63.26C298.4 63.91 298.23 64.43 297.58 64.81ZM284.19 90.62C283.57 90.11 282.95 89.58 282.33 89.07C281.71 88.55 281.09 88.04 280.47 87.51C280.01 87.14 279.91 86.49 280.18 86.07C280.57 85.47 281.2 85.37 281.77 85.84C283.04 86.9 284.3 87.95 285.57 89.02C286.08 89.45 286.18 90.07 285.82 90.53C285.46 90.97 284.68 91.02 284.19 90.62ZM304.07 71.62C304.17 71.27 304.26 70.91 304.37 70.57C304.59 69.87 305.1 69.6 305.81 69.81C307.72 70.36 309.62 70.92 311.53 71.49C311.7 71.54 311.86 71.65 311.96 71.7C312.37 72.06 312.46 72.46 312.34 72.9C312.23 73.32 312.1 73.73 311.96 74.14C311.75 74.76 311.24 75.04 310.61 74.86C308.7 74.31 306.8 73.75 304.9 73.17C304.09 72.92 303.85 72.43 304.07 71.62ZM303.04 95.4C301.5 97.23 299.58 97.99 297.21 97.38C296.58 97.22 295.98 96.96 295.47 96.52C294.55 95.73 293.55 95.03 292.7 94.16C291.53 92.96 291.06 91.46 291.29 89.77C291.43 88.75 291.82 87.86 292.5 87.07C293.85 85.5 295.17 83.9 296.49 82.31C297.88 80.64 299.25 78.95 300.68 77.31C301.89 75.92 303.47 75.41 305.29 75.63C306.38 75.76 307.34 76.2 308.16 76.94C309.02 77.72 310.01 78.34 310.76 79.25C312.11 80.92 312.36 82.76 311.58 84.76C311.33 85.4 310.94 85.93 310.51 86.45C308.04 89.43 305.54 92.42 303.04 95.4Z" fill="white" style="fill-opacity: 0.01;"/>
<path d="M106.17 311.81C98.8201 313.85 91.7401 313.22 84.9901 309.59C84.3201 309.23 83.9302 309.37 83.4002 309.76C79.7702 312.38 76.0201 314.82 72.0001 316.81C70.0101 317.78 68.0401 318.67 65.8501 318.97C63.1001 319.35 61.9101 318.1 62.4701 315.37C62.9701 312.94 64.1802 310.8 65.4402 308.7C67.6402 305.04 70.2101 301.64 72.9301 298.36C73.3201 297.89 73.4102 297.55 73.1202 296.95C66.9702 284.01 72.1401 268.02 84.7701 261.2C93.6201 256.42 102.57 256.51 111.48 261.14C112.06 261.44 112.42 261.37 112.91 261.02C116.74 258.27 120.68 255.7 124.95 253.66C126.63 252.86 128.35 252.15 130.2 251.83C130.89 251.71 131.58 251.66 132.26 251.81C133.24 252.02 133.79 252.61 133.96 253.61C134.08 254.33 133.98 255.03 133.8 255.73C133.18 258.17 131.96 260.34 130.66 262.47C128.53 265.95 126.08 269.19 123.48 272.32C123.08 272.8 122.98 273.16 123.27 273.79C129.68 287.62 123.61 304.04 109.75 310.44C108.58 310.96 107.41 311.46 106.17 311.81Z" fill="white" style="fill-opacity: 0.01;"/>
<path d="M8.00023 73.4498C0.650229 75.4898 -6.42977 74.8599 -13.1798 71.2299C-13.8498 70.8699 -14.2398 71.0099 -14.7698 71.3999C-18.3998 74.0199 -22.1498 76.4598 -26.1698 78.4498C-28.1298 79.4198 -30.1298 80.3098 -32.3198 80.6098C-35.0698 80.9898 -36.2598 79.7399 -35.6998 77.0099C-35.1998 74.5799 -33.9898 72.4398 -32.7298 70.3398C-30.5298 66.6798 -27.9598 63.2799 -25.2398 59.9999C-24.8498 59.5299 -24.7598 59.1899 -25.0498 58.5899C-31.1998 45.6499 -26.0298 29.6599 -13.3998 22.8399C-4.54977 18.0599 4.40023 18.1499 13.3102 22.7799C13.8902 23.0799 14.2502 23.0099 14.7402 22.6599C18.5702 19.9099 22.5102 17.3399 26.7802 15.2999C28.4602 14.4999 30.1802 13.7899 32.0302 13.4699C32.7202 13.3499 33.4102 13.2999 34.0902 13.4499C35.0702 13.6599 35.6202 14.2499 35.7902 15.2499C35.9102 15.9699 35.8102 16.6699 35.6302 17.3699C35.0102 19.8099 33.7902 21.9799 32.4902 24.1099C30.3602 27.5899 27.9102 30.8299 25.3102 33.9599C24.9102 34.4399 24.8102 34.7999 25.1002 35.4299C31.5102 49.2599 25.4402 65.6799 11.5802 72.0799C10.4202 72.5999 9.24023 73.0998 8.00023 73.4498Z" fill="white" style="fill-opacity: 0.01;"/>
<path d="M210.71 73.4498C203.36 75.4898 196.28 74.8599 189.53 71.2299C188.86 70.8699 188.47 71.0099 187.94 71.3999C184.31 74.0199 180.56 76.4598 176.54 78.4498C174.58 79.4198 172.58 80.3098 170.39 80.6098C167.64 80.9898 166.45 79.7399 167.01 77.0099C167.51 74.5799 168.72 72.4398 169.98 70.3398C172.18 66.6798 174.75 63.2799 177.47 59.9999C177.86 59.5299 177.95 59.1899 177.66 58.5899C171.51 45.6499 176.68 29.6599 189.31 22.8399C198.16 18.0599 207.11 18.1499 216.02 22.7799C216.6 23.0799 216.96 23.0099 217.45 22.6599C221.28 19.9099 225.22 17.3399 229.49 15.2999C231.17 14.4999 232.89 13.7899 234.74 13.4699C235.43 13.3499 236.12 13.2999 236.8 13.4499C237.78 13.6599 238.33 14.2499 238.5 15.2499C238.62 15.9699 238.52 16.6699 238.34 17.3699C237.72 19.8099 236.5 21.9799 235.2 24.1099C233.07 27.5899 230.62 30.8299 228.02 33.9599C227.62 34.4399 227.52 34.7999 227.81 35.4299C234.22 49.2599 228.15 65.6799 214.29 72.0799C213.12 72.5999 211.95 73.0998 210.71 73.4498Z" fill="white" style="fill-opacity: 0.01;"/>
<path d="M408.901 73.4498C401.551 75.4898 394.471 74.8599 387.721 71.2299C387.051 70.8699 386.661 71.0099 386.131 71.3999C382.501 74.0199 378.751 76.4598 374.731 78.4498C372.771 79.4198 370.771 80.3098 368.581 80.6098C365.831 80.9898 364.641 79.7399 365.201 77.0099C365.701 74.5799 366.911 72.4398 368.171 70.3398C370.371 66.6798 372.941 63.2799 375.661 59.9999C376.051 59.5299 376.141 59.1899 375.851 58.5899C369.701 45.6499 374.871 29.6599 387.501 22.8399C396.351 18.0599 405.301 18.1499 414.211 22.7799C414.791 23.0799 415.151 23.0099 415.641 22.6599C419.471 19.9099 423.411 17.3399 427.681 15.2999C429.361 14.4999 431.081 13.7899 432.931 13.4699C433.621 13.3499 434.311 13.2999 434.991 13.4499C435.971 13.6599 436.521 14.2499 436.691 15.2499C436.811 15.9699 436.711 16.6699 436.531 17.3699C435.911 19.8099 434.691 21.9799 433.391 24.1099C431.261 27.5899 428.811 30.8299 426.211 33.9599C425.811 34.4399 425.711 34.7999 426.001 35.4299C432.411 49.2599 426.341 65.6799 412.481 72.0799C411.321 72.5999 410.141 73.0998 408.901 73.4498Z" fill="white" style="fill-opacity: 0.01;"/>
</g>
<defs>
<clipPath id="clip0_1971_111460">
<rect width="400" height="400" fill="white" style="fill-opacity: 0.01;"/>
</clipPath>
</defs>
</svg>
