{
    "asset" : {
        "generator" : "Khronos glTF Blender I/O v1.7.33",
        "version" : "2.0"
    },
    "scene" : 0,
    "scenes" : [
        {
            "name" : "Scene",
            "nodes" : [
                0
            ]
        }
    ],
    "nodes" : [
        {
            "mesh" : 0,
            "name" : "pSphere3.004"
        }
    ],
    "materials" : [
        {
            "alphaMode" : "BLEND",
            "doubleSided" : true,
            "name" : "glass.001",
            "pbrMetallicRoughness" : {
                "baseColorFactor" : [
                    0.02315336838364601,
                    0.6444798707962036,
                    1.0000001192092896,
                    1
                ],
                "metallicFactor" : 0,
                "roughnessFactor" : 0.663636326789856
            }
        },
        {
            "doubleSided" : true,
            "name" : "body.002",
            "pbrMetallicRoughness" : {
                "baseColorFactor" : [
                    0,
                    0.108908511698246,
                    1,
                    1
                ],
                "metallicFactor" : 0,
                "roughnessFactor" : 0.4681818187236786
            }
        }
    ],
    "meshes" : [
        {
            "name" : "Mesh.044",
            "primitives" : [
                {
                    "attributes" : {
                        "POSITION" : 0,
                        "NORMAL" : 1,
                        "TEXCOORD_0" : 2
                    },
                    "indices" : 3,
                    "material" : 0
                },
                {
                    "attributes" : {
                        "POSITION" : 4,
                        "NORMAL" : 5,
                        "TEXCOORD_0" : 6
                    },
                    "indices" : 7,
                    "material" : 1
                }
            ]
        }
    ],
    "accessors" : [
        {
            "bufferView" : 0,
            "componentType" : 5126,
            "count" : 378,
            "max" : [
                2.4923248291015625,
                1.4343681335449219,
                2.4919393062591553
            ],
            "min" : [
                -2.492379665374756,
                0.02394147589802742,
                -2.492780923843384
            ],
            "type" : "VEC3"
        },
        {
            "bufferView" : 1,
            "componentType" : 5126,
            "count" : 378,
            "type" : "VEC3"
        },
        {
            "bufferView" : 2,
            "componentType" : 5126,
            "count" : 378,
            "type" : "VEC2"
        },
        {
            "bufferView" : 3,
            "componentType" : 5123,
            "count" : 1440,
            "type" : "SCALAR"
        },
        {
            "bufferView" : 4,
            "componentType" : 5126,
            "count" : 1660,
            "max" : [
                2.492563247680664,
                2.4987659454345703,
                2.4919896125793457
            ],
            "min" : [
                -2.4921412467956543,
                -2.4995903968811035,
                -2.4927306175231934
            ],
            "type" : "VEC3"
        },
        {
            "bufferView" : 5,
            "componentType" : 5126,
            "count" : 1660,
            "type" : "VEC3"
        },
        {
            "bufferView" : 6,
            "componentType" : 5126,
            "count" : 1660,
            "type" : "VEC2"
        },
        {
            "bufferView" : 7,
            "componentType" : 5123,
            "count" : 5880,
            "type" : "SCALAR"
        }
    ],
    "bufferViews" : [
        {
            "buffer" : 0,
            "byteLength" : 4536,
            "byteOffset" : 0
        },
        {
            "buffer" : 0,
            "byteLength" : 4536,
            "byteOffset" : 4536
        },
        {
            "buffer" : 0,
            "byteLength" : 3024,
            "byteOffset" : 9072
        },
        {
            "buffer" : 0,
            "byteLength" : 2880,
            "byteOffset" : 12096
        },
        {
            "buffer" : 0,
            "byteLength" : 19920,
            "byteOffset" : 14976
        },
        {
            "buffer" : 0,
            "byteLength" : 19920,
            "byteOffset" : 34896
        },
        {
            "buffer" : 0,
            "byteLength" : 13280,
            "byteOffset" : 54816
        },
        {
            "buffer" : 0,
            "byteLength" : 11760,
            "byteOffset" : 68096
        }
    ],
    "buffers" : [
        {
            "byteLength" : 79856,
            "uri" : "data:application/octet-stream;base64,"
        }
    ]
}
