{
    "asset" : {
        "generator" : "Khronos glTF Blender I/O v1.7.33",
        "version" : "2.0"
    },
    "extensionsUsed" : [
        "KHR_materials_transmission"
    ],
    "scene" : 0,
    "scenes" : [
        {
            "name" : "Scene",
            "nodes" : [
                0
            ]
        }
    ],
    "nodes" : [
        {
            "mesh" : 0,
            "name" : "pPlatonic2.005"
        }
    ],
    "materials" : [
        {
            "doubleSided" : true,
            "name" : "body.003",
            "pbrMetallicRoughness" : {
                "baseColorFactor" : [
                    0.03423069790005684,
                    1,
                    0,
                    1
                ],
                "metallicFactor" : 0,
                "roughnessFactor" : 0.6818181872367859
            }
        },
        {
            "alphaMode" : "BLEND",
            "doubleSided" : true,
            "extensions" : {
                "KHR_materials_transmission" : {
                    "transmissionFactor" : 0.22272726893424988
                }
            },
            "name" : "glass.003",
            "pbrMetallicRoughness" : {
                "baseColorFactor" : [
                    0,
                    1,
                    0.9641790390014648,
                    1
                ],
                "metallicFactor" : 0,
                "roughnessFactor" : 0.663636326789856
            }
        }
    ],
    "meshes" : [
        {
            "name" : "Mesh.047",
            "primitives" : [
                {
                    "attributes" : {
                        "POSITION" : 0,
                        "NORMAL" : 1,
                        "TEXCOORD_0" : 2
                    },
                    "indices" : 3,
                    "material" : 0
                },
                {
                    "attributes" : {
                        "POSITION" : 4,
                        "NORMAL" : 5,
                        "TEXCOORD_0" : 6
                    },
                    "indices" : 7,
                    "material" : 1
                }
            ]
        }
    ],
    "accessors" : [
        {
            "bufferView" : 0,
            "componentType" : 5126,
            "count" : 661,
            "max" : [
                2.5162575244903564,
                2.5051510334014893,
                1.4275245666503906
            ],
            "min" : [
                -2.5175726413726807,
                -2.5389156341552734,
                -2.7727949619293213
            ],
            "type" : "VEC3"
        },
        {
            "bufferView" : 1,
            "componentType" : 5126,
            "count" : 661,
            "type" : "VEC3"
        },
        {
            "bufferView" : 2,
            "componentType" : 5126,
            "count" : 661,
            "type" : "VEC2"
        },
        {
            "bufferView" : 3,
            "componentType" : 5123,
            "count" : 3330,
            "type" : "SCALAR"
        },
        {
            "bufferView" : 4,
            "componentType" : 5126,
            "count" : 121,
            "max" : [
                1.8830660581588745,
                1.943529725074768,
                2.1590664386749268
            ],
            "min" : [
                -1.8765336275100708,
                -1.8171697854995728,
                1.147342324256897
            ],
            "type" : "VEC3"
        },
        {
            "bufferView" : 5,
            "componentType" : 5126,
            "count" : 121,
            "type" : "VEC3"
        },
        {
            "bufferView" : 6,
            "componentType" : 5126,
            "count" : 121,
            "type" : "VEC2"
        },
        {
            "bufferView" : 7,
            "componentType" : 5123,
            "count" : 630,
            "type" : "SCALAR"
        }
    ],
    "bufferViews" : [
        {
            "buffer" : 0,
            "byteLength" : 7932,
            "byteOffset" : 0
        },
        {
            "buffer" : 0,
            "byteLength" : 7932,
            "byteOffset" : 7932
        },
        {
            "buffer" : 0,
            "byteLength" : 5288,
            "byteOffset" : 15864
        },
        {
            "buffer" : 0,
            "byteLength" : 6660,
            "byteOffset" : 21152
        },
        {
            "buffer" : 0,
            "byteLength" : 1452,
            "byteOffset" : 27812
        },
        {
            "buffer" : 0,
            "byteLength" : 1452,
            "byteOffset" : 29264
        },
        {
            "buffer" : 0,
            "byteLength" : 968,
            "byteOffset" : 30716
        },
        {
            "buffer" : 0,
            "byteLength" : 1260,
            "byteOffset" : 31684
        }
    ],
    "buffers" : [
        {
            "byteLength" : 32944,
            "uri" : "data:application/octet-stream;base64,"
        }
    ]
}
