{
    "asset" : {
        "generator" : "Khronos glTF Blender I/O v1.7.33",
        "version" : "2.0"
    },
    "extensionsUsed" : [
        "KHR_materials_transmission"
    ],
    "scene" : 0,
    "scenes" : [
        {
            "name" : "Scene",
            "nodes" : [
                0
            ]
        }
    ],
    "nodes" : [
        {
            "mesh" : 0,
            "name" : "pPlatonic6.006"
        }
    ],
    "materials" : [
        {
            "doubleSided" : true,
            "name" : "body.005",
            "pbrMetallicRoughness" : {
                "baseColorFactor" : [
                    0.4232676923274994,
                    0.025186844170093536,
                    1,
                    1
                ],
                "metallicFactor" : 0,
                "roughnessFactor" : 0.6818181872367859
            }
        },
        {
            "alphaMode" : "BLEND",
            "doubleSided" : true,
            "extensions" : {
                "KHR_materials_transmission" : {
                    "transmissionFactor" : 0.22272726893424988
                }
            },
            "name" : "glass.001",
            "pbrMetallicRoughness" : {
                "baseColorFactor" : [
                    0.02315336838364601,
                    0.6444798707962036,
                    1.0000001192092896,
                    1
                ],
                "metallicFactor" : 0,
                "roughnessFactor" : 0.663636326789856
            }
        },
        {
            "doubleSided" : true,
            "emissiveFactor" : [
                0.0648294303701702,
                1,
                1
            ],
            "name" : "BlueEmit_Toon.001",
            "pbrMetallicRoughness" : {
                "baseColorFactor" : [
                    0.02315336838364601,
                    0.6444798707962036,
                    1.0000001192092896,
                    1
                ],
                "metallicFactor" : 0,
                "roughnessFactor" : 0.5
            }
        }
    ],
    "meshes" : [
        {
            "name" : "Mesh.045",
            "primitives" : [
                {
                    "attributes" : {
                        "POSITION" : 0,
                        "NORMAL" : 1,
                        "TEXCOORD_0" : 2
                    },
                    "indices" : 3,
                    "material" : 0
                },
                {
                    "attributes" : {
                        "POSITION" : 4,
                        "NORMAL" : 5,
                        "TEXCOORD_0" : 6
                    },
                    "indices" : 7,
                    "material" : 1
                },
                {
                    "attributes" : {
                        "POSITION" : 8,
                        "NORMAL" : 9,
                        "TEXCOORD_0" : 10
                    },
                    "indices" : 11,
                    "material" : 2
                }
            ]
        }
    ],
    "accessors" : [
        {
            "bufferView" : 0,
            "componentType" : 5126,
            "count" : 656,
            "max" : [
                2.4942681789398193,
                2.5001869201660156,
                1.8578786849975586
            ],
            "min" : [
                -2.49499249458313,
                -2.496408462524414,
                -2.214545726776123
            ],
            "type" : "VEC3"
        },
        {
            "bufferView" : 1,
            "componentType" : 5126,
            "count" : 656,
            "type" : "VEC3"
        },
        {
            "bufferView" : 2,
            "componentType" : 5126,
            "count" : 656,
            "type" : "VEC2"
        },
        {
            "bufferView" : 3,
            "componentType" : 5123,
            "count" : 3060,
            "type" : "SCALAR"
        },
        {
            "bufferView" : 4,
            "componentType" : 5126,
            "count" : 211,
            "max" : [
                1.898616909980774,
                1.8740723133087158,
                2.6837751865386963
            ],
            "min" : [
                -1.8959569931030273,
                -1.9276930093765259,
                1.7724223136901855
            ],
            "type" : "VEC3"
        },
        {
            "bufferView" : 5,
            "componentType" : 5126,
            "count" : 211,
            "type" : "VEC3"
        },
        {
            "bufferView" : 6,
            "componentType" : 5126,
            "count" : 211,
            "type" : "VEC2"
        },
        {
            "bufferView" : 7,
            "componentType" : 5123,
            "count" : 990,
            "type" : "SCALAR"
        },
        {
            "bufferView" : 8,
            "componentType" : 5126,
            "count" : 35,
            "max" : [
                2.336514472961426,
                2.4331297874450684,
                0.947813093662262
            ],
            "min" : [
                -2.3305749893188477,
                -2.068711042404175,
                0.3911735713481903
            ],
            "type" : "VEC3"
        },
        {
            "bufferView" : 9,
            "componentType" : 5126,
            "count" : 35,
            "type" : "VEC3"
        },
        {
            "bufferView" : 10,
            "componentType" : 5126,
            "count" : 35,
            "type" : "VEC2"
        },
        {
            "bufferView" : 11,
            "componentType" : 5123,
            "count" : 90,
            "type" : "SCALAR"
        }
    ],
    "bufferViews" : [
        {
            "buffer" : 0,
            "byteLength" : 7872,
            "byteOffset" : 0
        },
        {
            "buffer" : 0,
            "byteLength" : 7872,
            "byteOffset" : 7872
        },
        {
            "buffer" : 0,
            "byteLength" : 5248,
            "byteOffset" : 15744
        },
        {
            "buffer" : 0,
            "byteLength" : 6120,
            "byteOffset" : 20992
        },
        {
            "buffer" : 0,
            "byteLength" : 2532,
            "byteOffset" : 27112
        },
        {
            "buffer" : 0,
            "byteLength" : 2532,
            "byteOffset" : 29644
        },
        {
            "buffer" : 0,
            "byteLength" : 1688,
            "byteOffset" : 32176
        },
        {
            "buffer" : 0,
            "byteLength" : 1980,
            "byteOffset" : 33864
        },
        {
            "buffer" : 0,
            "byteLength" : 420,
            "byteOffset" : 35844
        },
        {
            "buffer" : 0,
            "byteLength" : 420,
            "byteOffset" : 36264
        },
        {
            "buffer" : 0,
            "byteLength" : 280,
            "byteOffset" : 36684
        },
        {
            "buffer" : 0,
            "byteLength" : 180,
            "byteOffset" : 36964
        }
    ],
    "buffers" : [
        {
            "byteLength" : 37144,
            "uri" : "data:application/octet-stream;base64,"
        }
    ]
}
