{
    "asset" : {
        "generator" : "Khronos glTF Blender I/O v1.7.33",
        "version" : "2.0"
    },
    "extensionsUsed" : [
        "KHR_materials_transmission"
    ],
    "scene" : 0,
    "scenes" : [
        {
            "name" : "Scene",
            "nodes" : [
                0
            ]
        }
    ],
    "nodes" : [
        {
            "mesh" : 0,
            "name" : "pPlatonic6.007"
        }
    ],
    "materials" : [
        {
            "doubleSided" : true,
            "emissiveFactor" : [
                1,
                1,
                1
            ],
            "emissiveTexture" : {
                "index" : 0
            },
            "name" : "Yellow02",
            "pbrMetallicRoughness" : {
                "baseColorTexture" : {
                    "index" : 1
                },
                "metallicFactor" : 0,
                "roughnessFactor" : 0.5
            }
        },
        {
            "alphaMode" : "BLEND",
            "doubleSided" : true,
            "extensions" : {
                "KHR_materials_transmission" : {
                    "transmissionFactor" : 0.22272726893424988
                }
            },
            "name" : "glass.001",
            "pbrMetallicRoughness" : {
                "baseColorFactor" : [
                    0.02315336838364601,
                    0.6444798707962036,
                    1.0000001192092896,
                    1
                ],
                "metallicFactor" : 0,
                "roughnessFactor" : 0.663636326789856
            }
        },
        {
            "doubleSided" : true,
            "emissiveFactor" : [
                0.06482941993935754,
                1,
                1
            ],
            "name" : "BlueEmit_Toon.001",
            "pbrMetallicRoughness" : {}
        },
        {
            "doubleSided" : true,
            "name" : "Material.004",
            "pbrMetallicRoughness" : {
                "baseColorFactor" : [
                    1,
                    0.737410843372345,
                    0.003737875260412693,
                    1
                ],
                "metallicFactor" : 0,
                "roughnessFactor" : 0.5
            }
        }
    ],
    "meshes" : [
        {
            "name" : "Mesh.046",
            "primitives" : [
                {
                    "attributes" : {
                        "POSITION" : 0,
                        "NORMAL" : 1,
                        "TEXCOORD_0" : 2
                    },
                    "indices" : 3,
                    "material" : 0
                },
                {
                    "attributes" : {
                        "POSITION" : 4,
                        "NORMAL" : 5,
                        "TEXCOORD_0" : 6
                    },
                    "indices" : 7,
                    "material" : 1
                },
                {
                    "attributes" : {
                        "POSITION" : 8,
                        "NORMAL" : 9,
                        "TEXCOORD_0" : 10
                    },
                    "indices" : 11,
                    "material" : 2
                },
                {
                    "attributes" : {
                        "POSITION" : 12,
                        "NORMAL" : 13,
                        "TEXCOORD_0" : 14
                    },
                    "indices" : 15,
                    "material" : 3
                }
            ]
        }
    ],
    "textures" : [
        {
            "sampler" : 0,
            "source" : 0
        },
        {
            "sampler" : 0,
            "source" : 1
        }
    ],
    "images" : [
        {
            "bufferView" : 4,
            "mimeType" : "image/png",
            "name" : "Yellow02_Emission1k_00"
        },
        {
            "bufferView" : 5,
            "mimeType" : "image/png",
            "name" : "Yellow02_Color1k_00"
        }
    ],
    "accessors" : [
        {
            "bufferView" : 0,
            "componentType" : 5126,
            "count" : 661,
            "max" : [
                2.5016870498657227,
                2.5076234340667725,
                1.8167468309402466
            ],
            "min" : [
                -2.502413511276245,
                -2.503833532333374,
                -2.2211320400238037
            ],
            "type" : "VEC3"
        },
        {
            "bufferView" : 1,
            "componentType" : 5126,
            "count" : 661,
            "type" : "VEC3"
        },
        {
            "bufferView" : 2,
            "componentType" : 5126,
            "count" : 661,
            "type" : "VEC2"
        },
        {
            "bufferView" : 3,
            "componentType" : 5123,
            "count" : 3150,
            "type" : "SCALAR"
        },
        {
            "bufferView" : 6,
            "componentType" : 5126,
            "count" : 91,
            "max" : [
                1.6195640563964844,
                1.623984932899475,
                2.6917572021484375
            ],
            "min" : [
                -1.612418532371521,
                -1.6136490106582642,
                2.0396642684936523
            ],
            "type" : "VEC3"
        },
        {
            "bufferView" : 7,
            "componentType" : 5126,
            "count" : 91,
            "type" : "VEC3"
        },
        {
            "bufferView" : 8,
            "componentType" : 5126,
            "count" : 91,
            "type" : "VEC2"
        },
        {
            "bufferView" : 9,
            "componentType" : 5123,
            "count" : 450,
            "type" : "SCALAR"
        },
        {
            "bufferView" : 10,
            "componentType" : 5126,
            "count" : 330,
            "max" : [
                1.9914592504501343,
                1.9623970985412598,
                1.9203304052352905
            ],
            "min" : [
                -1.9889060258865356,
                -2.016876697540283,
                1.7401338815689087
            ],
            "type" : "VEC3"
        },
        {
            "bufferView" : 11,
            "componentType" : 5126,
            "count" : 330,
            "type" : "VEC3"
        },
        {
            "bufferView" : 12,
            "componentType" : 5126,
            "count" : 330,
            "type" : "VEC2"
        },
        {
            "bufferView" : 13,
            "componentType" : 5123,
            "count" : 1080,
            "type" : "SCALAR"
        },
        {
            "bufferView" : 14,
            "componentType" : 5126,
            "count" : 120,
            "max" : [
                1.836254596710205,
                1.816323161125183,
                2.1673851013183594
            ],
            "min" : [
                -1.8332910537719727,
                -1.864919900894165,
                1.874871015548706
            ],
            "type" : "VEC3"
        },
        {
            "bufferView" : 15,
            "componentType" : 5126,
            "count" : 120,
            "type" : "VEC3"
        },
        {
            "bufferView" : 16,
            "componentType" : 5126,
            "count" : 120,
            "type" : "VEC2"
        },
        {
            "bufferView" : 17,
            "componentType" : 5123,
            "count" : 540,
            "type" : "SCALAR"
        }
    ],
    "bufferViews" : [
        {
            "buffer" : 0,
            "byteLength" : 7932,
            "byteOffset" : 0
        },
        {
            "buffer" : 0,
            "byteLength" : 7932,
            "byteOffset" : 7932
        },
        {
            "buffer" : 0,
            "byteLength" : 5288,
            "byteOffset" : 15864
        },
        {
            "buffer" : 0,
            "byteLength" : 6300,
            "byteOffset" : 21152
        },
        {
            "buffer" : 0,
            "byteLength" : 6199,
            "byteOffset" : 27452
        },
        {
            "buffer" : 0,
            "byteLength" : 15549,
            "byteOffset" : 33652
        },
        {
            "buffer" : 0,
            "byteLength" : 1092,
            "byteOffset" : 49204
        },
        {
            "buffer" : 0,
            "byteLength" : 1092,
            "byteOffset" : 50296
        },
        {
            "buffer" : 0,
            "byteLength" : 728,
            "byteOffset" : 51388
        },
        {
            "buffer" : 0,
            "byteLength" : 900,
            "byteOffset" : 52116
        },
        {
            "buffer" : 0,
            "byteLength" : 3960,
            "byteOffset" : 53016
        },
        {
            "buffer" : 0,
            "byteLength" : 3960,
            "byteOffset" : 56976
        },
        {
            "buffer" : 0,
            "byteLength" : 2640,
            "byteOffset" : 60936
        },
        {
            "buffer" : 0,
            "byteLength" : 2160,
            "byteOffset" : 63576
        },
        {
            "buffer" : 0,
            "byteLength" : 1440,
            "byteOffset" : 65736
        },
        {
            "buffer" : 0,
            "byteLength" : 1440,
            "byteOffset" : 67176
        },
        {
            "buffer" : 0,
            "byteLength" : 960,
            "byteOffset" : 68616
        },
        {
            "buffer" : 0,
            "byteLength" : 1080,
            "byteOffset" : 69576
        }
    ],
    "samplers" : [
        {
            "magFilter" : 9729,
            "minFilter" : 9987
        }
    ],
    "buffers" : [
        {
            "byteLength" : 70656,
            "uri" : "data:application/octet-stream;base64,"
        }
    ]
}
